0
SECTION
2
HEADER
9
$INSUNITS
70
4
9
$ACADVER
1
AC1014
9
$HANDSEED
5
FFFF
0
ENDSEC
0
SECTION
2
TABLES
0
TABLE
2
VPORT
5
8
100
AcDbSymbolTable
0
ENDTAB
0
TABLE
2
LTYPE
5
5
100
AcDbSymbolTable
0
LTYPE
5
14
100
AcDbSymbolTableRecord
100
AcDbLinetypeTableRecord
2
BYBLOCK
70
0
0
LTYPE
5
15
100
AcDbSymbolTableRecord
100
AcDbLinetypeTableRecord
2
BYLAYER
70
0
0
LTYPE
5
16
100
AcDbSymbolTableRecord
100
AcDbLinetypeTableRecord
2
DASHED
70
0
3
Dashed __ __ __ __ __ __ __ __ __ __ __ __ __ _
72
65
73
2
40
0.75
49
0.5
74
0
49
-0.25
74
0
0
ENDTAB
0
TABLE
2
LAYER
5
2
100
AcDbSymbolTable
70
2
0
LAYER
5
50
100
AcDbSymbolTableRecord
100
AcDbLayerTableRecord
2
0
70
0
62
7
6
CONTINUOUS
0
ENDTAB
0
TABLE
2
STYLE
5
3
100
AcDbSymbolTable
70
1
0
STYLE
5
11
100
AcDbSymbolTableRecord
100
AcDbTextStyleTableRecord
2
STANDARD
70
0
0
ENDTAB
0
TABLE
2
VIEW
5
6
100
AcDbSymbolTable
70
0
0
ENDTAB
0
TABLE
2
UCS
5
7
100
AcDbSymbolTable
70
0
0
ENDTAB
0
TABLE
2
APPID
5
9
100
AcDbSymbolTable
70
2
0
APPID
5
12
100
AcDbSymbolTableRecord
100
AcDbRegAppTableRecord
2
ACAD
70
0
0
ENDTAB
0
TABLE
2
DIMSTYLE
5
A
100
AcDbSymbolTable
70
1
0
ENDTAB
0
TABLE
2
BLOCK_RECORD
5
1
100
AcDbSymbolTable
70
1
0
BLOCK_RECORD
5
1F
100
AcDbSymbolTableRecord
100
AcDbBlockTableRecord
2
*MODEL_SPACE
0
BLOCK_RECORD
5
1B
100
AcDbSymbolTableRecord
100
AcDbBlockTableRecord
2
*PAPER_SPACE
0
ENDTAB
0
ENDSEC
0
SECTION
2
BLOCKS
0
BLOCK
5
20
100
AcDbEntity
100
AcDbBlockBegin
2
*MODEL_SPACE
0
ENDBLK
5
21
100
AcDbEntity
100
AcDbBlockEnd
0
BLOCK
5
1C
100
AcDbEntity
100
AcDbBlockBegin
2
*PAPER_SPACE
0
ENDBLK
5
1D
100
AcDbEntity
100
AcDbBlockEnd
0
ENDSEC
0
SECTION
2
ENTITIES
0
LWPOLYLINE
5
100
100
AcDbEntity
8
0
100
AcDbPolyline
90
40
70
1
43
0.0
10
-248.00001230184037
20
-235.00001230183989
42
0.4142135623730846
10
-249.00001230184034
20
-236.00001230183992
10
-249.0000123018404
20
-262.00001230183994
42
-0.41421356237309503
10
-250.0000123018404
20
-263.00001230183994
10
-260.00001230184034
20
-263.00001230183994
42
-0.41421356237311585
10
-261.00001230184034
20
-262.00001230183989
10
-261.00001230184034
20
-228.00001230183994
42
-0.41421356237309503
10
-260.00001230184034
20
-227.00001230183994
10
-236.00001230184006
20
-227.00001230183994
42
0.41421356237309503
10
-235.00001230184006
20
-226.00001230183983
10
-235.00001230184006
20
275.99998769816011
42
0.41421356237309503
10
-236.00001230184006
20
276.99998769816011
10
-260.00001230184034
20
276.99998769816011
42
-0.41421356237309503
10
-261.00001230184034
20
277.99998769816011
10
-261.00001230184034
20
311.99998769816011
42
-0.41421356237309503
10
-260.00001230184034
20
312.99998769816011
10
-250.00001230184037
20
312.99998769816023
42
-0.41421356237309503
10
-249.00001230184034
20
311.99998769816023
10
-249.00001230184034
20
285.99998769816017
42
0.41421356237309503
10
-248.00001230184034
20
284.99998769816017
10
297.99998769816034
20
284.99998769816017
42
0.41421356237309503
10
298.99998769816034
20
285.99998769816017
10
298.99998769816034
20
311.99998769816011
42
-0.41421356237309503
10
299.9999876981604
20
312.99998769816011
10
309.99998769816034
20
312.99998769816011
42
-0.41421356237307422
10
310.99998769816034
20
311.99998769816023
10
310.99998769816034
20
277.99998769816011
42
-0.41421356237309503
10
309.99998769816034
20
276.99998769816011
10
285.99998769816006
20
276.99998769816011
42
0.41421356237309503
10
284.99998769816
20
275.99998769816011
10
284.99998769816
20
-226.00001230183992
42
0.41421356237309503
10
285.99998769816006
20
-227.00001230183994
10
309.99998769816034
20
-227.00001230183986
42
-0.41421356237309503
10
310.99998769816034
20
-228.00001230183989
10
310.99998769816034
20
-262.00000405311584
42
-0.41421356237309503
10
309.99998769816034
20
-263.00000405311584
10
300.00000408291817
20
-263.00000405311584
42
-0.41421356237309503
10
299.00000408291817
20
-262.00000405311584
10
299.00000408291817
20
-236.00001230183992
42
0.41421356237309503
10
298.00000408291817
20
-235.00001230183989
0
LWPOLYLINE
5
101
100
AcDbEntity
8
0
100
AcDbPolyline
90
8
70
1
43
0.0
10
324.00000000000011
20
-275
42
0.41421356237309503
10
325.00000000000011
20
-274
10
325.00000000000011
20
324
42
0.41421356237309503
10
324.00000000000011
20
325
10
-273.99999999999983
20
325
42
0.41421356237309503
10
-274.99999999999983
20
324
10
-274.99999999999983
20
-274
42
0.41421356237309503
10
-273.99999999999983
20
-275
0
CIRCLE
5
102
100
AcDbEntity
8
0
100
AcDbCircle
10
-264.99999999999977
20
-71.666666666666728
30
2.384179254022456e-07
40
2.7499999999999858
210
-3.4694469519536083e-16
220
2.3336307291979281e-61
230
1
0
CIRCLE
5
103
100
AcDbEntity
8
0
100
AcDbCircle
10
218.33333333333348
20
295
30
2.3841806751079275e-07
40
2.7499999999999858
210
-3.4694469519536083e-16
220
2.3336307291979281e-61
230
1
0
CIRCLE
5
104
100
AcDbEntity
8
0
100
AcDbCircle
10
218.33333333333348
20
-245
30
2.3841806751079275e-07
40
2.7499999999999858
210
-3.4694469519536083e-16
220
2.3336307291979281e-61
230
1
0
CIRCLE
5
105
100
AcDbEntity
8
0
100
AcDbCircle
10
295.00000000000017
20
218.33333333333337
30
2.3841806751079275e-07
40
2.7499999999999858
210
-3.4694469519536083e-16
220
2.3336307291979281e-61
230
1
0
CIRCLE
5
106
100
AcDbEntity
8
0
100
AcDbCircle
10
315.00000000000017
20
121.6666666666667
30
2.3841806751079275e-07
40
2.7499999999999858
210
-3.4694469519536083e-16
220
2.3336307291979281e-61
230
1
0
CIRCLE
5
107
100
AcDbEntity
8
0
100
AcDbCircle
10
-244.99999999999977
20
24.999999999999982
30
2.384179254022456e-07
40
2.7499999999999858
210
-3.4694469519536083e-16
220
2.3336307291979281e-61
230
1
0
CIRCLE
5
108
100
AcDbEntity
8
0
100
AcDbCircle
10
315.00000000000017
20
-71.666666666666728
30
2.3841806751079275e-07
40
2.7499999999999858
210
-3.4694469519536083e-16
220
2.3336307291979281e-61
230
1
0
CIRCLE
5
109
100
AcDbEntity
8
0
100
AcDbCircle
10
-244.99999999999977
20
-168.33333333333337
30
2.384179254022456e-07
40
2.7499999999999858
210
-3.4694469519536083e-16
220
2.3336307291979281e-61
230
1
0
CIRCLE
5
110
100
AcDbEntity
8
0
100
AcDbCircle
10
-71.666666666666629
20
-265
30
2.3841799645651918e-07
40
2.7500000000000036
210
-3.4694469519536083e-16
220
2.3336307291979281e-61
230
1
0
CIRCLE
5
111
100
AcDbEntity
8
0
100
AcDbCircle
10
-264.99999999999977
20
121.6666666666667
30
2.384179254022456e-07
40
2.7499999999999858
210
-3.4694469519536083e-16
220
2.3336307291979281e-61
230
1
0
CIRCLE
5
112
100
AcDbEntity
8
0
100
AcDbCircle
10
25.000000000000146
20
-245
30
2.3841799645651918e-07
40
2.75
210
-3.4694469519536088e-16
220
2.3336307291979281e-61
230
1
0
CIRCLE
5
113
100
AcDbEntity
8
0
100
AcDbCircle
10
25.000000000000146
20
295
30
2.3841799645651918e-07
40
2.75
210
-3.4694469519536088e-16
220
2.3336307291979281e-61
230
1
0
CIRCLE
5
114
100
AcDbEntity
8
0
100
AcDbCircle
10
121.66666666666683
20
-265
30
2.3841806751079275e-07
40
2.7500000000000036
210
-3.4694469519536083e-16
220
2.3336307291979281e-61
230
1
0
CIRCLE
5
115
100
AcDbEntity
8
0
100
AcDbCircle
10
295.00000000000017
20
24.999999999999982
30
2.3841806751079275e-07
40
2.7499999999999858
210
-3.4694469519536083e-16
220
2.3336307291979281e-61
230
1
0
CIRCLE
5
116
100
AcDbEntity
8
0
100
AcDbCircle
10
-71.666666666666629
20
315
30
2.3841799645651918e-07
40
2.7500000000000036
210
-3.4694469519536083e-16
220
2.3336307291979281e-61
230
1
0
CIRCLE
5
117
100
AcDbEntity
8
0
100
AcDbCircle
10
121.66666666666683
20
315
30
2.3841806751079275e-07
40
2.7500000000000036
210
-3.4694469519536083e-16
220
2.3336307291979281e-61
230
1
0
CIRCLE
5
118
100
AcDbEntity
8
0
100
AcDbCircle
10
-244.99999999999977
20
218.33333333333337
30
2.384179254022456e-07
40
2.7499999999999858
210
-3.4694469519536083e-16
220
2.3336307291979281e-61
230
1
0
CIRCLE
5
119
100
AcDbEntity
8
0
100
AcDbCircle
10
-168.33333333333317
20
295
30
2.3841799645651918e-07
40
2.7499999999999858
210
-3.4694469519536083e-16
220
2.3336307291979281e-61
230
1
0
CIRCLE
5
120
100
AcDbEntity
8
0
100
AcDbCircle
10
-168.33333333333317
20
-245
30
2.3841799645651918e-07
40
2.7499999999999858
210
-3.4694469519536083e-16
220
2.3336307291979281e-61
230
1
0
CIRCLE
5
121
100
AcDbEntity
8
0
100
AcDbCircle
10
295.00000000000017
20
-168.33333333333337
30
2.3841806751079275e-07
40
2.7499999999999858
210
-3.4694469519536083e-16
220
2.3336307291979281e-61
230
1
0
CIRCLE
5
122
100
AcDbEntity
8
0
100
AcDbCircle
10
-245.00000402331352
20
-245.00000402331352
30
2.3841799645651918e-07
40
3.2499999999999929
210
-8.326659653412448e-17
220
3.1115076389305709e-61
230
1
0
CIRCLE
5
123
100
AcDbEntity
8
0
100
AcDbCircle
10
295.00000402331352
20
-245.00000402331352
30
2.3841799645651918e-07
40
3.2499999999999929
210
-8.326659653412448e-17
220
3.1115076389305709e-61
230
1
0
CIRCLE
5
124
100
AcDbEntity
8
0
100
AcDbCircle
10
-245.00000402331352
20
295.00000402331352
30
2.3841799645651918e-07
40
3.2499999999999929
210
-8.326659653412448e-17
220
3.1115076389305709e-61
230
1
0
CIRCLE
5
125
100
AcDbEntity
8
0
100
AcDbCircle
10
295.00000402331352
20
295.00000402331352
30
2.3841799645651918e-07
40
3.2499999999999929
210
-8.326659653412448e-17
220
3.1115076389305709e-61
230
1
0
ENDSEC
0
SECTION
2
OBJECTS
0
DICTIONARY
5
C
100
AcDbDictionary
3
ACAD_GROUP
350
D
3
ACAD_MLINESTYLE
350
17
0
DICTIONARY
5
D
100
AcDbDictionary
0
DICTIONARY
5
1A
330
C
100
AcDbDictionary
0
DICTIONARY
5
17
100
AcDbDictionary
0
ENDSEC
0
EOF
