0
SECTION
2
HEADER
9
$INSUNITS
70
4
9
$ACADVER
1
AC1014
9
$HANDSEED
5
FFFF
0
ENDSEC
0
SECTION
2
TABLES
0
TABLE
2
VPORT
5
8
100
AcDbSymbolTable
0
ENDTAB
0
TABLE
2
LTYPE
5
5
100
AcDbSymbolTable
0
LTYPE
5
14
100
AcDbSymbolTableRecord
100
AcDbLinetypeTableRecord
2
BYBLOCK
70
0
0
LTYPE
5
15
100
AcDbSymbolTableRecord
100
AcDbLinetypeTableRecord
2
BYLAYER
70
0
0
LTYPE
5
16
100
AcDbSymbolTableRecord
100
AcDbLinetypeTableRecord
2
DASHED
70
0
3
Dashed __ __ __ __ __ __ __ __ __ __ __ __ __ _
72
65
73
2
40
0.75
49
0.5
74
0
49
-0.25
74
0
0
ENDTAB
0
TABLE
2
LAYER
5
2
100
AcDbSymbolTable
70
2
0
LAYER
5
50
100
AcDbSymbolTableRecord
100
AcDbLayerTableRecord
2
0
70
0
62
7
6
CONTINUOUS
0
ENDTAB
0
TABLE
2
STYLE
5
3
100
AcDbSymbolTable
70
1
0
STYLE
5
11
100
AcDbSymbolTableRecord
100
AcDbTextStyleTableRecord
2
STANDARD
70
0
0
ENDTAB
0
TABLE
2
VIEW
5
6
100
AcDbSymbolTable
70
0
0
ENDTAB
0
TABLE
2
UCS
5
7
100
AcDbSymbolTable
70
0
0
ENDTAB
0
TABLE
2
APPID
5
9
100
AcDbSymbolTable
70
2
0
APPID
5
12
100
AcDbSymbolTableRecord
100
AcDbRegAppTableRecord
2
ACAD
70
0
0
ENDTAB
0
TABLE
2
DIMSTYLE
5
A
100
AcDbSymbolTable
70
1
0
ENDTAB
0
TABLE
2
BLOCK_RECORD
5
1
100
AcDbSymbolTable
70
1
0
BLOCK_RECORD
5
1F
100
AcDbSymbolTableRecord
100
AcDbBlockTableRecord
2
*MODEL_SPACE
0
BLOCK_RECORD
5
1B
100
AcDbSymbolTableRecord
100
AcDbBlockTableRecord
2
*PAPER_SPACE
0
ENDTAB
0
ENDSEC
0
SECTION
2
BLOCKS
0
BLOCK
5
20
100
AcDbEntity
100
AcDbBlockBegin
2
*MODEL_SPACE
0
ENDBLK
5
21
100
AcDbEntity
100
AcDbBlockEnd
0
BLOCK
5
1C
100
AcDbEntity
100
AcDbBlockBegin
2
*PAPER_SPACE
0
ENDBLK
5
1D
100
AcDbEntity
100
AcDbBlockEnd
0
ENDSEC
0
SECTION
2
ENTITIES
0
ARC
5
100
100
AcDbEntity
8
0
100
AcDbCircle
10
-273.99999999999966
20
323.99999999999989
30
-1.5258789218819402e-05
40
1.0000000000000853
210
0
220
-0
230
1
100
AcDbArc
50
90
51
180
0
LINE
5
101
100
AcDbEntity
8
0
100
AcDbLine
10
-274.99999999999966
20
323.99999999999989
30
-1.5258789218819402e-05
11
-274.99999999999966
21
-274.00000000000006
31
-1.5258789218819402e-05
0
ARC
5
102
100
AcDbEntity
8
0
100
AcDbCircle
10
-273.99999999999972
20
-274.00000000000006
30
-1.5258789218819402e-05
40
0.99999999999997868
210
0
220
0
230
1
100
AcDbArc
50
180
51
270
0
LINE
5
103
100
AcDbEntity
8
0
100
AcDbLine
10
-273.99999999999972
20
-275.00000000000006
30
-1.5258789218819402e-05
11
324.00000000000045
21
-275
31
-1.5258789218819402e-05
0
ARC
5
104
100
AcDbEntity
8
0
100
AcDbCircle
10
324.0000000000004
20
-274.00000000000023
30
-1.5258789218819402e-05
40
0.99999999999980105
210
0
220
0
230
1
100
AcDbArc
50
-89.999999999996746
51
0
0
LINE
5
105
100
AcDbEntity
8
0
100
AcDbLine
10
325.00000000000028
20
-274.00000000000023
30
-1.5258789218819402e-05
11
325.00000000000028
21
324.00000000000006
31
-1.5258789218819402e-05
0
ARC
5
106
100
AcDbEntity
8
0
100
AcDbCircle
10
324.00000000000034
20
324.00000000000006
30
-1.5258789218819402e-05
40
0.99999999999994316
210
0
220
0
230
1
100
AcDbArc
50
0
51
90
0
LINE
5
107
100
AcDbEntity
8
0
100
AcDbLine
10
324.00000000000034
20
325
30
-1.5258789218819402e-05
11
-273.99999999999966
21
325
31
-1.5258789218819402e-05
0
CIRCLE
5
108
100
AcDbEntity
8
0
100
AcDbCircle
10
-264.99999999999966
20
-71.666666666666728
30
-1.5258789218819402e-05
40
2.7499999999999858
210
-5.5511151231257975e-17
220
-1.7516230804060213e-45
230
1
0
CIRCLE
5
109
100
AcDbEntity
8
0
100
AcDbCircle
10
218.3333333333336
20
295
30
-1.5258789218819402e-05
40
2.7499999999999858
210
-5.5511151231257975e-17
220
-1.7516230804060213e-45
230
1
0
CIRCLE
5
110
100
AcDbEntity
8
0
100
AcDbCircle
10
218.3333333333336
20
-245
30
-1.5258789218819402e-05
40
2.7499999999999858
210
-5.5511151231257975e-17
220
-1.7516230804060213e-45
230
1
0
CIRCLE
5
111
100
AcDbEntity
8
0
100
AcDbCircle
10
295.00000000000028
20
218.33333333333337
30
-1.5258789218819402e-05
40
2.7499999999999858
210
-5.5511151231257975e-17
220
-1.7516230804060213e-45
230
1
0
CIRCLE
5
112
100
AcDbEntity
8
0
100
AcDbCircle
10
315.00000000000028
20
121.6666666666667
30
-1.5258789218819402e-05
40
2.7499999999999858
210
-5.5511151231257975e-17
220
-1.7516230804060213e-45
230
1
0
CIRCLE
5
113
100
AcDbEntity
8
0
100
AcDbCircle
10
-244.99999999999969
20
24.999999999999982
30
-1.5258789218819402e-05
40
2.7499999999999858
210
-5.5511151231257975e-17
220
-1.7516230804060213e-45
230
1
0
CIRCLE
5
114
100
AcDbEntity
8
0
100
AcDbCircle
10
315.00000000000028
20
-71.666666666666728
30
-1.5258789218819402e-05
40
2.7499999999999858
210
-5.5511151231257975e-17
220
-1.7516230804060213e-45
230
1
0
CIRCLE
5
115
100
AcDbEntity
8
0
100
AcDbCircle
10
-244.99999999999969
20
-168.33333333333337
30
-1.5258789218819402e-05
40
2.7499999999999858
210
-5.5511151231257975e-17
220
-1.7516230804060213e-45
230
1
0
CIRCLE
5
116
100
AcDbEntity
8
0
100
AcDbCircle
10
-71.666666666666444
20
-265
30
-1.5258789218819402e-05
40
2.7500000000000036
210
-5.5511151231257975e-17
220
-1.7516230804060213e-45
230
1
0
CIRCLE
5
117
100
AcDbEntity
8
0
100
AcDbCircle
10
-264.99999999999966
20
121.6666666666667
30
-1.5258789218819402e-05
40
2.7499999999999858
210
-5.5511151231257975e-17
220
-1.7516230804060213e-45
230
1
0
CIRCLE
5
118
100
AcDbEntity
8
0
100
AcDbCircle
10
25.000000000000302
20
-245
30
-1.5258789218819402e-05
40
2.75
210
-5.5511151231257963e-17
220
-1.7516230804060213e-45
230
1
0
CIRCLE
5
119
100
AcDbEntity
8
0
100
AcDbCircle
10
25.000000000000302
20
295
30
-1.5258789218819402e-05
40
2.75
210
-5.5511151231257963e-17
220
-1.7516230804060213e-45
230
1
0
CIRCLE
5
120
100
AcDbEntity
8
0
100
AcDbCircle
10
121.666666666667
20
-265
30
-1.5258789218819402e-05
40
2.7500000000000036
210
-5.5511151231257975e-17
220
-1.7516230804060213e-45
230
1
0
CIRCLE
5
121
100
AcDbEntity
8
0
100
AcDbCircle
10
295.00000000000028
20
24.999999999999982
30
-1.5258789218819402e-05
40
2.7499999999999858
210
-5.5511151231257975e-17
220
-1.7516230804060213e-45
230
1
0
CIRCLE
5
122
100
AcDbEntity
8
0
100
AcDbCircle
10
-71.666666666666444
20
315
30
-1.5258789218819402e-05
40
2.7500000000000036
210
-5.5511151231257975e-17
220
-1.7516230804060213e-45
230
1
0
CIRCLE
5
123
100
AcDbEntity
8
0
100
AcDbCircle
10
121.666666666667
20
315
30
-1.5258789218819402e-05
40
2.7500000000000036
210
-5.5511151231257975e-17
220
-1.7516230804060213e-45
230
1
0
CIRCLE
5
124
100
AcDbEntity
8
0
100
AcDbCircle
10
-244.99999999999969
20
218.33333333333337
30
-1.5258789218819402e-05
40
2.7499999999999858
210
-5.5511151231257975e-17
220
-1.7516230804060213e-45
230
1
0
CIRCLE
5
125
100
AcDbEntity
8
0
100
AcDbCircle
10
-168.33333333333309
20
295
30
-1.5258789218819402e-05
40
2.7499999999999858
210
-5.5511151231257975e-17
220
-1.7516230804060213e-45
230
1
0
CIRCLE
5
126
100
AcDbEntity
8
0
100
AcDbCircle
10
-168.33333333333309
20
-245
30
-1.5258789218819402e-05
40
2.7499999999999858
210
-5.5511151231257975e-17
220
-1.7516230804060213e-45
230
1
0
CIRCLE
5
127
100
AcDbEntity
8
0
100
AcDbCircle
10
295.00000000000028
20
-168.33333333333337
30
-1.5258789218819402e-05
40
2.7499999999999858
210
-5.5511151231257975e-17
220
-1.7516230804060213e-45
230
1
0
CIRCLE
5
128
100
AcDbEntity
8
0
100
AcDbCircle
10
-245.00000402331338
20
295.00000402331352
30
-1.5258789147765128e-05
40
3.2499999999999929
210
2.6367796834847438e-16
220
-1.7516230804060213e-45
230
1
0
CIRCLE
5
129
100
AcDbEntity
8
0
100
AcDbCircle
10
-245.00000402331338
20
-245.00000402331352
30
-1.5258789147765128e-05
40
3.2499999999999929
210
2.6367796834847438e-16
220
-1.7516230804060213e-45
230
1
0
CIRCLE
5
130
100
AcDbEntity
8
0
100
AcDbCircle
10
295.00000402331364
20
295.00000402331352
30
-1.5258789289873675e-05
40
3.2499999999999929
210
2.6367796834847438e-16
220
-1.7516230804060213e-45
230
1
0
CIRCLE
5
131
100
AcDbEntity
8
0
100
AcDbCircle
10
295.00000402331364
20
-245.00000402331352
30
-1.5258789289873675e-05
40
3.2499999999999929
210
2.6367796834847438e-16
220
-1.7516230804060213e-45
230
1
0
ENDSEC
0
SECTION
2
OBJECTS
0
DICTIONARY
5
C
100
AcDbDictionary
3
ACAD_GROUP
350
D
3
ACAD_MLINESTYLE
350
17
0
DICTIONARY
5
D
100
AcDbDictionary
0
DICTIONARY
5
1A
330
C
100
AcDbDictionary
0
DICTIONARY
5
17
100
AcDbDictionary
0
ENDSEC
0
EOF
