0
SECTION
2
HEADER
9
$INSUNITS
70
4
9
$ACADVER
1
AC1014
9
$HANDSEED
5
FFFF
0
ENDSEC
0
SECTION
2
TABLES
0
TABLE
2
VPORT
5
8
100
AcDbSymbolTable
0
ENDTAB
0
TABLE
2
LTYPE
5
5
100
AcDbSymbolTable
0
LTYPE
5
14
100
AcDbSymbolTableRecord
100
AcDbLinetypeTableRecord
2
BYBLOCK
70
0
0
LTYPE
5
15
100
AcDbSymbolTableRecord
100
AcDbLinetypeTableRecord
2
BYLAYER
70
0
0
LTYPE
5
16
100
AcDbSymbolTableRecord
100
AcDbLinetypeTableRecord
2
DASHED
70
0
3
Dashed __ __ __ __ __ __ __ __ __ __ __ __ __ _
72
65
73
2
40
0.75
49
0.5
74
0
49
-0.25
74
0
0
ENDTAB
0
TABLE
2
LAYER
5
2
100
AcDbSymbolTable
70
2
0
LAYER
5
50
100
AcDbSymbolTableRecord
100
AcDbLayerTableRecord
2
0
70
0
62
7
6
CONTINUOUS
0
ENDTAB
0
TABLE
2
STYLE
5
3
100
AcDbSymbolTable
70
1
0
STYLE
5
11
100
AcDbSymbolTableRecord
100
AcDbTextStyleTableRecord
2
STANDARD
70
0
0
ENDTAB
0
TABLE
2
VIEW
5
6
100
AcDbSymbolTable
70
0
0
ENDTAB
0
TABLE
2
UCS
5
7
100
AcDbSymbolTable
70
0
0
ENDTAB
0
TABLE
2
APPID
5
9
100
AcDbSymbolTable
70
2
0
APPID
5
12
100
AcDbSymbolTableRecord
100
AcDbRegAppTableRecord
2
ACAD
70
0
0
ENDTAB
0
TABLE
2
DIMSTYLE
5
A
100
AcDbSymbolTable
70
1
0
ENDTAB
0
TABLE
2
BLOCK_RECORD
5
1
100
AcDbSymbolTable
70
1
0
BLOCK_RECORD
5
1F
100
AcDbSymbolTableRecord
100
AcDbBlockTableRecord
2
*MODEL_SPACE
0
BLOCK_RECORD
5
1B
100
AcDbSymbolTableRecord
100
AcDbBlockTableRecord
2
*PAPER_SPACE
0
ENDTAB
0
ENDSEC
0
SECTION
2
BLOCKS
0
BLOCK
5
20
100
AcDbEntity
100
AcDbBlockBegin
2
*MODEL_SPACE
0
ENDBLK
5
21
100
AcDbEntity
100
AcDbBlockEnd
0
BLOCK
5
1C
100
AcDbEntity
100
AcDbBlockBegin
2
*PAPER_SPACE
0
ENDBLK
5
1D
100
AcDbEntity
100
AcDbBlockEnd
0
ENDSEC
0
SECTION
2
ENTITIES
0
LWPOLYLINE
5
100
100
AcDbEntity
8
0
100
AcDbPolyline
90
30
70
1
43
0.0
10
233.50017929075392
20
-234.500001907349
42
0.41421356237309503
10
234.50017929075392
20
-233.500001907349
10
234.50017929075221
20
238.99999809265123
42
0.4142135623730846
10
233.50017929075392
20
239.99999809265117
10
193.0001792907544
20
239.99999809265134
42
-0.41421356237309503
10
190.00017929075443
20
242.99999809265131
10
190.00017929075432
20
283.49999809265131
42
0.41421356237309503
10
189.00017929075432
20
284.49999809265131
10
-238.99982070924591
20
284.49999809265171
42
0.41421356237309503
10
-239.99982070924591
20
283.49999809265262
10
-239.99982070924591
20
242.99999809265259
42
-0.41421356237309159
10
-242.99982070924588
20
239.99999809265265
10
-283.49982070924602
20
239.99999809265276
42
0.41421356237309503
10
-284.49982070924602
20
238.99999809265279
10
-284.49982070924608
20
-233.5000019073473
42
0.41421356237309503
10
-283.49982070924636
20
-234.5000019073473
10
-64.999820709246166
20
-234.50000190735014
42
0.41421356237309503
10
-63.999820709246151
20
-233.50000190734801
10
-63.999820709246151
20
-226.00000190734792
10
-51.999820709246194
20
-226.00000190734792
42
0.41421356237309503
10
-50.99982070924618
20
-225.00000190734798
10
-50.999820709246144
20
-186.00000190734815
42
-0.41421356237309503
10
-47.999820709246102
20
-183.00000190734809
10
-1.9998207092462297
20
-183.00000190734823
42
-0.41421356237309503
10
1.0001792907538132
20
-186.00000190734829
10
1.0001792907537777
20
-225.00000190734812
42
0.41421356237309503
10
2.0001792907537919
20
-226.00000190734815
10
14.00017929075382
20
-226.00000190734821
10
14.00017929075382
20
-233.50000190734821
42
0.41421356237309503
10
15.000179290753834
20
-234.50000190734823
0
ENDSEC
0
SECTION
2
OBJECTS
0
DICTIONARY
5
C
100
AcDbDictionary
3
ACAD_GROUP
350
D
3
ACAD_MLINESTYLE
350
17
0
DICTIONARY
5
D
100
AcDbDictionary
0
DICTIONARY
5
1A
330
C
100
AcDbDictionary
0
DICTIONARY
5
17
100
AcDbDictionary
0
ENDSEC
0
EOF
