0
SECTION
2
HEADER
9
$INSUNITS
70
4
9
$ACADVER
1
AC1014
9
$HANDSEED
5
FFFF
0
ENDSEC
0
SECTION
2
TABLES
0
TABLE
2
VPORT
5
8
100
AcDbSymbolTable
0
ENDTAB
0
TABLE
2
LTYPE
5
5
100
AcDbSymbolTable
0
LTYPE
5
14
100
AcDbSymbolTableRecord
100
AcDbLinetypeTableRecord
2
BYBLOCK
70
0
0
LTYPE
5
15
100
AcDbSymbolTableRecord
100
AcDbLinetypeTableRecord
2
BYLAYER
70
0
0
LTYPE
5
16
100
AcDbSymbolTableRecord
100
AcDbLinetypeTableRecord
2
DASHED
70
0
3
Dashed __ __ __ __ __ __ __ __ __ __ __ __ __ _
72
65
73
2
40
0.75
49
0.5
74
0
49
-0.25
74
0
0
ENDTAB
0
TABLE
2
LAYER
5
2
100
AcDbSymbolTable
70
2
0
LAYER
5
50
100
AcDbSymbolTableRecord
100
AcDbLayerTableRecord
2
0
70
0
62
7
6
CONTINUOUS
0
ENDTAB
0
TABLE
2
STYLE
5
3
100
AcDbSymbolTable
70
1
0
STYLE
5
11
100
AcDbSymbolTableRecord
100
AcDbTextStyleTableRecord
2
STANDARD
70
0
0
ENDTAB
0
TABLE
2
VIEW
5
6
100
AcDbSymbolTable
70
0
0
ENDTAB
0
TABLE
2
UCS
5
7
100
AcDbSymbolTable
70
0
0
ENDTAB
0
TABLE
2
APPID
5
9
100
AcDbSymbolTable
70
2
0
APPID
5
12
100
AcDbSymbolTableRecord
100
AcDbRegAppTableRecord
2
ACAD
70
0
0
ENDTAB
0
TABLE
2
DIMSTYLE
5
A
100
AcDbSymbolTable
70
1
0
ENDTAB
0
TABLE
2
BLOCK_RECORD
5
1
100
AcDbSymbolTable
70
1
0
BLOCK_RECORD
5
1F
100
AcDbSymbolTableRecord
100
AcDbBlockTableRecord
2
*MODEL_SPACE
0
BLOCK_RECORD
5
1B
100
AcDbSymbolTableRecord
100
AcDbBlockTableRecord
2
*PAPER_SPACE
0
ENDTAB
0
ENDSEC
0
SECTION
2
BLOCKS
0
BLOCK
5
20
100
AcDbEntity
100
AcDbBlockBegin
2
*MODEL_SPACE
0
ENDBLK
5
21
100
AcDbEntity
100
AcDbBlockEnd
0
BLOCK
5
1C
100
AcDbEntity
100
AcDbBlockBegin
2
*PAPER_SPACE
0
ENDBLK
5
1D
100
AcDbEntity
100
AcDbBlockEnd
0
ENDSEC
0
SECTION
2
ENTITIES
0
LWPOLYLINE
5
100
100
AcDbEntity
8
0
100
AcDbPolyline
90
8
70
1
43
0.0
10
-235.988070802203
20
-439.98746495075386
42
0.41421356237309503
10
-234.98807080220297
20
-438.9874649507538
10
-234.98807080220257
20
439.01253504924631
42
0.4142135623730846
10
-235.98807080220254
20
440.01253504924637
10
-273.98807080220251
20
440.01253504924625
42
0.41421356237310542
10
-274.98807080220257
20
439.01253504924631
10
-274.98807080220291
20
-438.9874649507538
42
0.41421356237309503
10
-273.98807080220286
20
-439.98746495075386
0
CIRCLE
5
101
100
AcDbEntity
8
0
100
AcDbCircle
10
-245.00000000001063
20
107.49999999996979
30
-9.5366399222029941e-07
40
2.7500000000000568
210
2.1141038861638127e-15
220
-9.3489660457635149e-14
230
1
0
CIRCLE
5
102
100
AcDbEntity
8
0
100
AcDbCircle
10
-245.00000000001057
20
-322.50000000002984
30
-9.5370413788486985e-07
40
2.7500000000000568
210
2.1141038861638127e-15
220
-9.3471896889241124e-14
230
1
0
CIRCLE
5
103
100
AcDbEntity
8
0
100
AcDbCircle
10
-265.00000000001063
20
-215.00000000002987
30
-9.5369504293785212e-07
40
2.7500000000000568
210
2.1141038861638127e-15
220
-9.3471896889241124e-14
230
1
0
CIRCLE
5
104
100
AcDbEntity
8
0
100
AcDbCircle
10
-265.00000000001063
20
214.99999999996984
30
-9.536548262190081e-07
40
2.7500000000000568
210
2.1141038861638127e-15
220
-9.3471896889241124e-14
230
1
0
CIRCLE
5
105
100
AcDbEntity
8
0
100
AcDbCircle
10
-265.00000000001063
20
429.99999999996965
30
-9.5363471785958609e-07
40
3.2500000000000284
210
2.1141038861638127e-15
220
-9.350742402602916e-14
230
1
0
CIRCLE
5
106
100
AcDbEntity
8
0
100
AcDbCircle
10
-265.00000000001057
20
-3.0211328723217919e-11
30
-9.5367493457843011e-07
40
2.7500000000000568
210
2.1141038861638127e-15
220
-9.3482999119487379e-14
230
1
0
CIRCLE
5
107
100
AcDbEntity
8
0
100
AcDbCircle
10
-265.00000000001046
20
-430.00000000003007
30
-9.5371515129727413e-07
40
3.2499999999998863
210
2.1141038861638127e-15
220
-9.350742402602916e-14
230
1
0
CIRCLE
5
108
100
AcDbEntity
8
0
100
AcDbCircle
10
-245.00000000001054
20
-107.50000000003021
30
-9.5368402952544784e-07
40
2.7500000000000568
210
2.1141038861638127e-15
220
-9.3489660457635149e-14
230
1
0
CIRCLE
5
109
100
AcDbEntity
8
0
100
AcDbCircle
10
-245.00000000001066
20
322.49999999996982
30
-9.5364388386087739e-07
40
2.7500000000000568
210
2.1141038861638127e-15
220
-9.3507424026029135e-14
230
1
0
CIRCLE
5
110
100
AcDbEntity
8
0
100
AcDbCircle
10
-245.09990357284352
20
-12.500009834765626
30
-9.5367443719851508e-07
40
2.7500000000000213
210
-3.3420222194909468e-16
220
2.319390863692563e-29
230
1
0
CIRCLE
5
111
100
AcDbEntity
8
0
100
AcDbCircle
10
-245.09990357284377
20
-389.00000983476548
30
-9.536743661442415e-07
40
2.7499999999999858
210
-3.3420222194908753e-16
220
2.3193908636925627e-29
230
1
0
CIRCLE
5
112
100
AcDbEntity
8
0
100
AcDbCircle
10
-245.09990357284335
20
364.00000000000034
30
-9.5367450825278866e-07
40
2.7500000000000213
210
-3.3420222194909468e-16
220
2.319390863692563e-29
230
1
0
CIRCLE
5
113
100
AcDbEntity
8
0
100
AcDbCircle
10
-245.09990357284335
20
389.00000000000034
30
-9.5367450825278866e-07
40
2.7499999999999858
210
-3.3420222194907604e-16
220
2.3193908636925621e-29
230
1
0
CIRCLE
5
114
100
AcDbEntity
8
0
100
AcDbCircle
10
-245.09990357284352
20
12.499990165234374
30
-9.5367443719851508e-07
40
2.7499999999999858
210
-3.3420222194908753e-16
220
2.3193908636925627e-29
230
1
0
CIRCLE
5
115
100
AcDbEntity
8
0
100
AcDbCircle
10
-245.09990357284369
20
-364.00000983476548
30
-9.536743661442415e-07
40
2.7500000000000213
210
-3.3420222194909468e-16
220
2.319390863692563e-29
230
1
0
ENDSEC
0
SECTION
2
OBJECTS
0
DICTIONARY
5
C
100
AcDbDictionary
3
ACAD_GROUP
350
D
3
ACAD_MLINESTYLE
350
17
0
DICTIONARY
5
D
100
AcDbDictionary
0
DICTIONARY
5
1A
330
C
100
AcDbDictionary
0
DICTIONARY
5
17
100
AcDbDictionary
0
ENDSEC
0
EOF
