0
SECTION
2
HEADER
9
$INSUNITS
70
4
9
$ACADVER
1
AC1014
9
$HANDSEED
5
FFFF
0
ENDSEC
0
SECTION
2
TABLES
0
TABLE
2
VPORT
5
8
100
AcDbSymbolTable
0
ENDTAB
0
TABLE
2
LTYPE
5
5
100
AcDbSymbolTable
0
LTYPE
5
14
100
AcDbSymbolTableRecord
100
AcDbLinetypeTableRecord
2
BYBLOCK
70
0
0
LTYPE
5
15
100
AcDbSymbolTableRecord
100
AcDbLinetypeTableRecord
2
BYLAYER
70
0
0
LTYPE
5
16
100
AcDbSymbolTableRecord
100
AcDbLinetypeTableRecord
2
DASHED
70
0
3
Dashed __ __ __ __ __ __ __ __ __ __ __ __ __ _
72
65
73
2
40
0.75
49
0.5
74
0
49
-0.25
74
0
0
ENDTAB
0
TABLE
2
LAYER
5
2
100
AcDbSymbolTable
70
2
0
LAYER
5
50
100
AcDbSymbolTableRecord
100
AcDbLayerTableRecord
2
0
70
0
62
7
6
CONTINUOUS
0
ENDTAB
0
TABLE
2
STYLE
5
3
100
AcDbSymbolTable
70
1
0
STYLE
5
11
100
AcDbSymbolTableRecord
100
AcDbTextStyleTableRecord
2
STANDARD
70
0
0
ENDTAB
0
TABLE
2
VIEW
5
6
100
AcDbSymbolTable
70
0
0
ENDTAB
0
TABLE
2
UCS
5
7
100
AcDbSymbolTable
70
0
0
ENDTAB
0
TABLE
2
APPID
5
9
100
AcDbSymbolTable
70
2
0
APPID
5
12
100
AcDbSymbolTableRecord
100
AcDbRegAppTableRecord
2
ACAD
70
0
0
ENDTAB
0
TABLE
2
DIMSTYLE
5
A
100
AcDbSymbolTable
70
1
0
ENDTAB
0
TABLE
2
BLOCK_RECORD
5
1
100
AcDbSymbolTable
70
1
0
BLOCK_RECORD
5
1F
100
AcDbSymbolTableRecord
100
AcDbBlockTableRecord
2
*MODEL_SPACE
0
BLOCK_RECORD
5
1B
100
AcDbSymbolTableRecord
100
AcDbBlockTableRecord
2
*PAPER_SPACE
0
ENDTAB
0
ENDSEC
0
SECTION
2
BLOCKS
0
BLOCK
5
20
100
AcDbEntity
100
AcDbBlockBegin
2
*MODEL_SPACE
0
ENDBLK
5
21
100
AcDbEntity
100
AcDbBlockEnd
0
BLOCK
5
1C
100
AcDbEntity
100
AcDbBlockBegin
2
*PAPER_SPACE
0
ENDBLK
5
1D
100
AcDbEntity
100
AcDbBlockEnd
0
ENDSEC
0
SECTION
2
ENTITIES
0
LWPOLYLINE
5
100
100
AcDbEntity
8
0
100
AcDbPolyline
90
8
70
1
43
0.0
10
324.01192919779703
20
-439.98746495075409
42
0.41421356237309503
10
325.01192919779703
20
-438.98746495075409
10
325.01192919779737
20
439.01253504924603
42
0.41421356237307422
10
324.01192919779749
20
440.01253504924603
10
286.01192919779749
20
440.01253504924597
42
0.41421356237310542
10
285.01192919779743
20
439.01253504924603
10
285.01192919779709
20
-438.98746495075409
42
0.41421356237309503
10
286.01192919779703
20
-439.98746495075409
0
CIRCLE
5
101
100
AcDbEntity
8
0
100
AcDbCircle
10
294.99999999998954
20
-107.50000000003007
30
-9.5365951580106412e-07
40
2.7500000000000568
210
2.114103886163901e-15
220
-9.3489633352581606e-14
230
1
0
CIRCLE
5
102
100
AcDbEntity
8
0
100
AcDbCircle
10
314.99999999998943
20
429.99999999996987
30
-9.5360842777836297e-07
40
3.2500000000000284
210
2.114103886163901e-15
220
-9.3507396920975618e-14
230
1
0
CIRCLE
5
103
100
AcDbEntity
8
0
100
AcDbCircle
10
314.99999999998948
20
214.99999999996987
30
-9.5362853613778498e-07
40
2.7500000000000568
210
2.114103886163901e-15
220
-9.3471869784187595e-14
230
1
0
CIRCLE
5
104
100
AcDbEntity
8
0
100
AcDbCircle
10
314.99999999998948
20
-215.00000000002998
30
-9.53668752856629e-07
40
2.7500000000000568
210
2.114103886163901e-15
220
-9.3471869784187595e-14
230
1
0
CIRCLE
5
105
100
AcDbEntity
8
0
100
AcDbCircle
10
314.99999999998954
20
-430.00000000003001
30
-9.5368886121605101e-07
40
3.2499999999998863
210
2.114103886163901e-15
220
-9.3507396920975618e-14
230
1
0
CIRCLE
5
106
100
AcDbEntity
8
0
100
AcDbCircle
10
314.99999999998948
20
-3.0101407753309121e-11
30
-9.5364864449720699e-07
40
2.7500000000000568
210
2.114103886163901e-15
220
-9.3482972014433849e-14
230
1
0
CIRCLE
5
107
100
AcDbEntity
8
0
100
AcDbCircle
10
294.99999999998943
20
322.49999999996976
30
-9.5361937013649367e-07
40
2.7500000000000568
210
2.114103886163901e-15
220
-9.3507396920975605e-14
230
1
0
CIRCLE
5
108
100
AcDbEntity
8
0
100
AcDbCircle
10
294.99999999998948
20
107.49999999996993
30
-9.5363947849591568e-07
40
2.7500000000000568
210
2.114103886163901e-15
220
-9.3489633352581606e-14
230
1
0
CIRCLE
5
109
100
AcDbEntity
8
0
100
AcDbCircle
10
294.99999999998954
20
-322.50000000003007
30
-9.5367962416048613e-07
40
2.7500000000000568
210
2.114103886163901e-15
220
-9.3471869784187595e-14
230
1
0
ENDSEC
0
SECTION
2
OBJECTS
0
DICTIONARY
5
C
100
AcDbDictionary
3
ACAD_GROUP
350
D
3
ACAD_MLINESTYLE
350
17
0
DICTIONARY
5
D
100
AcDbDictionary
0
DICTIONARY
5
1A
330
C
100
AcDbDictionary
0
DICTIONARY
5
17
100
AcDbDictionary
0
ENDSEC
0
EOF
