0
SECTION
2
HEADER
9
$INSUNITS
70
4
9
$ACADVER
1
AC1014
9
$HANDSEED
5
FFFF
0
ENDSEC
0
SECTION
2
TABLES
0
TABLE
2
VPORT
5
8
100
AcDbSymbolTable
0
ENDTAB
0
TABLE
2
LTYPE
5
5
100
AcDbSymbolTable
0
LTYPE
5
14
100
AcDbSymbolTableRecord
100
AcDbLinetypeTableRecord
2
BYBLOCK
70
0
0
LTYPE
5
15
100
AcDbSymbolTableRecord
100
AcDbLinetypeTableRecord
2
BYLAYER
70
0
0
LTYPE
5
16
100
AcDbSymbolTableRecord
100
AcDbLinetypeTableRecord
2
DASHED
70
0
3
Dashed __ __ __ __ __ __ __ __ __ __ __ __ __ _
72
65
73
2
40
0.75
49
0.5
74
0
49
-0.25
74
0
0
ENDTAB
0
TABLE
2
LAYER
5
2
100
AcDbSymbolTable
70
2
0
LAYER
5
50
100
AcDbSymbolTableRecord
100
AcDbLayerTableRecord
2
0
70
0
62
7
6
CONTINUOUS
0
ENDTAB
0
TABLE
2
STYLE
5
3
100
AcDbSymbolTable
70
1
0
STYLE
5
11
100
AcDbSymbolTableRecord
100
AcDbTextStyleTableRecord
2
STANDARD
70
0
0
ENDTAB
0
TABLE
2
VIEW
5
6
100
AcDbSymbolTable
70
0
0
ENDTAB
0
TABLE
2
UCS
5
7
100
AcDbSymbolTable
70
0
0
ENDTAB
0
TABLE
2
APPID
5
9
100
AcDbSymbolTable
70
2
0
APPID
5
12
100
AcDbSymbolTableRecord
100
AcDbRegAppTableRecord
2
ACAD
70
0
0
ENDTAB
0
TABLE
2
DIMSTYLE
5
A
100
AcDbSymbolTable
70
1
0
ENDTAB
0
TABLE
2
BLOCK_RECORD
5
1
100
AcDbSymbolTable
70
1
0
BLOCK_RECORD
5
1F
100
AcDbSymbolTableRecord
100
AcDbBlockTableRecord
2
*MODEL_SPACE
0
BLOCK_RECORD
5
1B
100
AcDbSymbolTableRecord
100
AcDbBlockTableRecord
2
*PAPER_SPACE
0
ENDTAB
0
ENDSEC
0
SECTION
2
BLOCKS
0
BLOCK
5
20
100
AcDbEntity
100
AcDbBlockBegin
2
*MODEL_SPACE
0
ENDBLK
5
21
100
AcDbEntity
100
AcDbBlockEnd
0
BLOCK
5
1C
100
AcDbEntity
100
AcDbBlockBegin
2
*PAPER_SPACE
0
ENDBLK
5
1D
100
AcDbEntity
100
AcDbBlockEnd
0
ENDSEC
0
SECTION
2
ENTITIES
0
LWPOLYLINE
5
100
100
AcDbEntity
8
0
100
AcDbPolyline
90
8
70
1
43
0.0
10
324.00000000015575
20
-439.999999999941
42
0.41421356237307422
10
325.00000000015575
20
-438.99999999994111
10
325.00000000006662
20
439.00000000005878
42
0.41421356237313667
10
324.00000000006651
20
440.00000000005866
10
-273.99999999993338
20
439.99999999999801
42
0.41421356237314705
10
-274.99999999993338
20
438.99999999999795
10
-274.99999999984431
20
-439.00000000000193
42
0.41421356237312623
10
-273.99999999984408
20
-440.00000000000216
0
CIRCLE
5
101
100
AcDbEntity
8
0
100
AcDbCircle
10
218.33333333340283
20
410.00000000004786
30
-1.9428902930940239e-14
40
2.7500000000000568
210
1.5777218104403757e-30
220
1.6713990429370336e-29
230
1
0
CIRCLE
5
102
100
AcDbEntity
8
0
100
AcDbCircle
10
-264.99999999993247
20
429.99999999999886
30
-1.3378187446733136e-13
40
3.25
210
1.5777218104403757e-30
220
1.6713990429370347e-29
230
1
0
CIRCLE
5
103
100
AcDbEntity
8
0
100
AcDbCircle
10
-264.99999999986704
20
-215.00000000000071
30
-1.3378187446733136e-13
40
2.7500000000000568
210
1.5777218104403757e-30
220
1.6713990429370336e-29
230
1
0
CIRCLE
5
104
100
AcDbEntity
8
0
100
AcDbCircle
10
121.66666666682154
20
-429.9999999999618
30
-4.2188474935755949e-14
40
2.7500000000000568
210
1.5777218104403757e-30
220
1.6713990429370336e-29
230
1
0
CIRCLE
5
105
100
AcDbEntity
8
0
100
AcDbCircle
10
315.00000000006759
20
430.0000000000577
30
3.8857805861880479e-14
40
3.25
210
1.5777218104403757e-30
220
1.6713990429370347e-29
230
1
0
CIRCLE
5
106
100
AcDbEntity
8
0
100
AcDbCircle
10
25.000000000069527
20
410.00000000002831
30
-6.5503158452884236e-14
40
2.7500000000000568
210
1.5777218104403757e-30
220
1.6713990429370336e-29
230
1
0
CIRCLE
5
107
100
AcDbEntity
8
0
100
AcDbCircle
10
315.00000000013301
20
-214.99999999994188
30
3.8857805861880479e-14
40
2.7500000000000568
210
1.5777218104403757e-30
220
1.6713990429370336e-29
230
1
0
CIRCLE
5
108
100
AcDbEntity
8
0
100
AcDbCircle
10
-244.99999999989979
20
107.50000000000085
30
-9.3258734068513149e-14
40
2.7500000000000568
210
1.5777218104403757e-30
220
1.6713990429370336e-29
230
1
0
CIRCLE
5
109
100
AcDbEntity
8
0
100
AcDbCircle
10
295.00000000010027
20
107.50000000005571
30
-1.6653345369377348e-15
40
2.7500000000000568
210
1.5777218104403757e-30
220
1.6713990429370336e-29
230
1
0
CIRCLE
5
110
100
AcDbEntity
8
0
100
AcDbCircle
10
-168.33333333318052
20
-409.99999999999136
30
-1.1102230246251565e-13
40
2.7500000000000568
210
1.5777218104403757e-30
220
1.6713990429370336e-29
230
1
0
CIRCLE
5
111
100
AcDbEntity
8
0
100
AcDbCircle
10
121.66666666673429
20
430.00000000003809
30
-4.2188474935755949e-14
40
2.7500000000000568
210
1.5777218104403757e-30
220
1.6713990429370336e-29
230
1
0
CIRCLE
5
112
100
AcDbEntity
8
0
100
AcDbCircle
10
-264.99999999988887
20
-1.1368683772161603e-12
30
-1.3378187446733136e-13
40
2.7500000000000568
210
1.5777218104403757e-30
220
1.6713990429370336e-29
230
1
0
CIRCLE
5
113
100
AcDbEntity
8
0
100
AcDbCircle
10
-244.99999999992158
20
322.50000000000085
30
-9.3258734068513149e-14
40
2.7500000000000568
210
1.5777218104403757e-30
220
1.6713990429370336e-29
230
1
0
CIRCLE
5
114
100
AcDbEntity
8
0
100
AcDbCircle
10
295.00000000007844
20
322.50000000005571
30
-1.6653345369377348e-15
40
2.7500000000000568
210
1.5777218104403757e-30
220
1.6713990429370336e-29
230
1
0
CIRCLE
5
115
100
AcDbEntity
8
0
100
AcDbCircle
10
-71.666666666511887
20
-429.99999999998113
30
-8.8262730457699945e-14
40
2.7500000000000568
210
1.5777218104403757e-30
220
1.6713990429370336e-29
230
1
0
CIRCLE
5
116
100
AcDbEntity
8
0
100
AcDbCircle
10
295.00000000014387
20
-322.49999999994384
30
-1.6653345369377348e-15
40
2.7500000000000568
210
1.5777218104403757e-30
220
1.6713990429370336e-29
230
1
0
CIRCLE
5
117
100
AcDbEntity
8
0
100
AcDbCircle
10
-244.99999999985613
20
-322.49999999999898
30
-9.3258734068513149e-14
40
2.7500000000000568
210
1.5777218104403757e-30
220
1.6713990429370336e-29
230
1
0
CIRCLE
5
118
100
AcDbEntity
8
0
100
AcDbCircle
10
315.00000000011119
20
5.7696070143720135e-11
30
3.3306690738754696e-15
40
2.7500000000000568
210
1.5777218104403757e-30
220
1.6713990429370336e-29
230
1
0
CIRCLE
5
119
100
AcDbEntity
8
0
100
AcDbCircle
10
218.33333333348605
20
-409.99999999995214
30
-1.9428902930940239e-14
40
2.7500000000000568
210
1.5777218104403757e-30
220
1.6713990429370336e-29
230
1
0
CIRCLE
5
120
100
AcDbEntity
8
0
100
AcDbCircle
10
-264.9999999999107
20
214.99999999999886
30
-1.3378187446733136e-13
40
2.7500000000000568
210
1.5777218104403757e-30
220
1.6713990429370336e-29
230
1
0
CIRCLE
5
121
100
AcDbEntity
8
0
100
AcDbCircle
10
-71.666666666599184
20
430.00000000001847
30
-8.8262730457699945e-14
40
2.7500000000000568
210
1.5777218104403757e-30
220
1.6713990429370336e-29
230
1
0
CIRCLE
5
122
100
AcDbEntity
8
0
100
AcDbCircle
10
25.000000000152731
20
-409.99999999997169
30
-6.5503158452884236e-14
40
2.7500000000000568
210
1.5777218104403757e-30
220
1.6713990429370336e-29
230
1
0
CIRCLE
5
123
100
AcDbEntity
8
0
100
AcDbCircle
10
-168.33333333326379
20
410.00000000000864
30
-1.1102230246251565e-13
40
2.7500000000000568
210
1.5777218104403757e-30
220
1.6713990429370336e-29
230
1
0
CIRCLE
5
124
100
AcDbEntity
8
0
100
AcDbCircle
10
-244.99999999987796
20
-107.49999999999915
30
-1.2878587085651816e-13
40
2.7500000000000568
210
1.5777218104403757e-30
220
1.6713990429370336e-29
230
1
0
CIRCLE
5
125
100
AcDbEntity
8
0
100
AcDbCircle
10
295.0000000001221
20
-107.49999999994429
30
-3.7192471324942744e-14
40
2.7500000000000568
210
1.5777218104403757e-30
220
1.6713990429370336e-29
230
1
0
CIRCLE
5
126
100
AcDbEntity
8
0
100
AcDbCircle
10
315.00000000008936
20
215.0000000000577
30
3.3306690738754696e-15
40
2.7500000000000568
210
1.5777218104403757e-30
220
1.6713990429370336e-29
230
1
0
CIRCLE
5
127
100
AcDbEntity
8
0
100
AcDbCircle
10
-264.99999999984527
20
-430.00000000000068
30
-1.3378187446733136e-13
40
3.25
210
1.5777218104403757e-30
220
1.6713990429370347e-29
230
1
0
CIRCLE
5
128
100
AcDbEntity
8
0
100
AcDbCircle
10
315.00000000015484
20
-429.99999999994213
30
3.3306690738754696e-15
40
3.25
210
1.5777218104403757e-30
220
1.6713990429370347e-29
230
1
0
CIRCLE
5
129
100
AcDbEntity
8
0
100
AcDbCircle
10
89.999998806073975
20
429.99999058625474
30
1.831634843796337e-10
40
3.2500000000000018
210
1.7763568394002485e-15
220
3.1505132402264809e-29
230
1
0
CIRCLE
5
130
100
AcDbEntity
8
0
100
AcDbCircle
10
-39.999507205531799
20
429.99998417888196
30
1.8338164320397254e-10
40
3.2500000000000107
210
1.7763568394002485e-15
220
3.1505132402264809e-29
230
1
0
ENDSEC
0
SECTION
2
OBJECTS
0
DICTIONARY
5
C
100
AcDbDictionary
3
ACAD_GROUP
350
D
3
ACAD_MLINESTYLE
350
17
0
DICTIONARY
5
D
100
AcDbDictionary
0
DICTIONARY
5
1A
330
C
100
AcDbDictionary
0
DICTIONARY
5
17
100
AcDbDictionary
0
ENDSEC
0
EOF
