0
SECTION
2
HEADER
9
$INSUNITS
70
4
9
$ACADVER
1
AC1014
9
$HANDSEED
5
FFFF
0
ENDSEC
0
SECTION
2
TABLES
0
TABLE
2
VPORT
5
8
100
AcDbSymbolTable
0
ENDTAB
0
TABLE
2
LTYPE
5
5
100
AcDbSymbolTable
0
LTYPE
5
14
100
AcDbSymbolTableRecord
100
AcDbLinetypeTableRecord
2
BYBLOCK
70
0
0
LTYPE
5
15
100
AcDbSymbolTableRecord
100
AcDbLinetypeTableRecord
2
BYLAYER
70
0
0
LTYPE
5
16
100
AcDbSymbolTableRecord
100
AcDbLinetypeTableRecord
2
DASHED
70
0
3
Dashed __ __ __ __ __ __ __ __ __ __ __ __ __ _
72
65
73
2
40
0.75
49
0.5
74
0
49
-0.25
74
0
0
ENDTAB
0
TABLE
2
LAYER
5
2
100
AcDbSymbolTable
70
2
0
LAYER
5
50
100
AcDbSymbolTableRecord
100
AcDbLayerTableRecord
2
0
70
0
62
7
6
CONTINUOUS
0
ENDTAB
0
TABLE
2
STYLE
5
3
100
AcDbSymbolTable
70
1
0
STYLE
5
11
100
AcDbSymbolTableRecord
100
AcDbTextStyleTableRecord
2
STANDARD
70
0
0
ENDTAB
0
TABLE
2
VIEW
5
6
100
AcDbSymbolTable
70
0
0
ENDTAB
0
TABLE
2
UCS
5
7
100
AcDbSymbolTable
70
0
0
ENDTAB
0
TABLE
2
APPID
5
9
100
AcDbSymbolTable
70
2
0
APPID
5
12
100
AcDbSymbolTableRecord
100
AcDbRegAppTableRecord
2
ACAD
70
0
0
ENDTAB
0
TABLE
2
DIMSTYLE
5
A
100
AcDbSymbolTable
70
1
0
ENDTAB
0
TABLE
2
BLOCK_RECORD
5
1
100
AcDbSymbolTable
70
1
0
BLOCK_RECORD
5
1F
100
AcDbSymbolTableRecord
100
AcDbBlockTableRecord
2
*MODEL_SPACE
0
BLOCK_RECORD
5
1B
100
AcDbSymbolTableRecord
100
AcDbBlockTableRecord
2
*PAPER_SPACE
0
ENDTAB
0
ENDSEC
0
SECTION
2
BLOCKS
0
BLOCK
5
20
100
AcDbEntity
100
AcDbBlockBegin
2
*MODEL_SPACE
0
ENDBLK
5
21
100
AcDbEntity
100
AcDbBlockEnd
0
BLOCK
5
1C
100
AcDbEntity
100
AcDbBlockBegin
2
*PAPER_SPACE
0
ENDBLK
5
1D
100
AcDbEntity
100
AcDbBlockEnd
0
ENDSEC
0
SECTION
2
ENTITIES
0
LWPOLYLINE
5
100
100
AcDbEntity
8
0
100
AcDbPolyline
90
8
70
1
43
0.0
10
-233.99999476969614
20
-439.00000983476588
42
0.41421356237309503
10
-232.99999476969612
20
-440.00000983476593
10
283.00000523030394
20
-440.00000983476627
42
0.41421356237310542
10
284.00000523030394
20
-439.00000983476622
10
284.00000523030428
20
438.99999016523373
42
0.41421356237311585
10
283.00000523030428
20
439.99999016523384
10
-232.99999476969575
20
439.99999016523407
42
0.41421356237307422
10
-233.99999476969577
20
438.99999016523424
0
LWPOLYLINE
5
101
100
AcDbEntity
8
0
100
AcDbPolyline
90
8
70
1
43
0.0
10
-183.50000273436675
20
-384.49999419599726
10
-183.50000273436638
20
384.5000058040028
42
-0.41421356237309503
10
-178.50000273436638
20
389.5000058040028
10
228.49999726563365
20
389.50000580400263
42
-0.41421356237309503
10
233.49999726563365
20
384.50000580400263
10
233.49999726563328
20
-384.49999419599737
42
-0.4142135623730992
10
228.49999726563328
20
-389.49999419599743
10
-178.50000273436675
20
-389.49999419599726
42
-0.41421356237309503
0
CIRCLE
5
102
100
AcDbEntity
8
0
100
AcDbCircle
10
274.0445103205351
20
64.999489217490748
30
-9.5366598173995953e-07
40
3.2500000000000107
210
-1.6653345369692079e-16
220
-1.7763568658859016e-15
230
1
0
CIRCLE
5
103
100
AcDbEntity
8
0
100
AcDbCircle
10
274.04451201142672
20
-65.000512011602055
30
-9.5366619490278026e-07
40
3.2499999999999982
210
-1.6653345369692079e-16
220
-1.7763568658859016e-15
230
1
0
CIRCLE
5
104
100
AcDbEntity
8
0
100
AcDbCircle
10
-224.00000000001069
20
-215.00000000002998
30
-9.5370406683059628e-07
40
2.7500000000000568
210
-1.6653345369600347e-16
220
-9.3471896889241251e-14
230
1
0
CIRCLE
5
105
100
AcDbEntity
8
0
100
AcDbCircle
10
-224.00000000001069
20
214.99999999996973
30
-9.5366377905747868e-07
40
2.7500000000000568
210
-1.6653345369600347e-16
220
-9.3471896889241251e-14
230
1
0
CIRCLE
5
106
100
AcDbEntity
8
0
100
AcDbCircle
10
-204.00000000001071
20
322.49999999996976
30
-9.5365301433503191e-07
40
2.7500000000000568
210
-1.6653345369600344e-16
220
-9.3507424026029261e-14
230
1
0
CIRCLE
5
107
100
AcDbEntity
8
0
100
AcDbCircle
10
-204.00000000001063
20
-107.50000000003024
30
-9.5369315999960236e-07
40
2.7500000000000568
210
-1.6653345369600347e-16
220
-9.3489660457635275e-14
230
1
0
CIRCLE
5
108
100
AcDbEntity
8
0
100
AcDbCircle
10
-204.00000000001063
20
-322.5000000000299
30
-9.5371326835902437e-07
40
2.7500000000000568
210
-1.6653345369600347e-16
220
-9.3471896889241251e-14
230
1
0
CIRCLE
5
109
100
AcDbEntity
8
0
100
AcDbCircle
10
-204.00000000001071
20
107.49999999996976
30
-9.5367312269445392e-07
40
2.7500000000000568
210
-1.6653345369600347e-16
220
-9.3489660457635275e-14
230
1
0
CIRCLE
5
110
100
AcDbEntity
8
0
100
AcDbCircle
10
-224.00000000001071
20
429.99999999996965
30
-9.5364374175233024e-07
40
3.2500000000000284
210
-1.6653345369600344e-16
220
-9.3507424026029286e-14
230
1
0
CIRCLE
5
111
100
AcDbEntity
8
0
100
AcDbCircle
10
-224.00000000001057
20
-430.00000000003007
30
-9.5372417519001829e-07
40
3.2499999999998863
210
-1.6653345369600344e-16
220
-9.3507424026029274e-14
230
1
0
CIRCLE
5
112
100
AcDbEntity
8
0
100
AcDbCircle
10
24.99999999998947
20
-410.00000000003001
30
-9.5371195385496321e-07
40
2.7500000000000568
210
-1.6653345369600344e-16
220
-9.3507424026029135e-14
230
1
0
CIRCLE
5
113
100
AcDbEntity
8
0
100
AcDbCircle
10
-71.66666666667723
20
-430.00000000003013
30
-9.5371788688680681e-07
40
2.7500000000000568
210
-1.6653345369600344e-16
220
-9.3507424026029135e-14
230
1
0
CIRCLE
5
114
100
AcDbEntity
8
0
100
AcDbCircle
10
-71.666666666677287
20
429.99999999996976
30
-9.5363738239484519e-07
40
2.7500000000000568
210
-1.6653345369600344e-16
220
-9.3507424026029135e-14
230
1
0
CIRCLE
5
115
100
AcDbEntity
8
0
100
AcDbCircle
10
121.66666666665617
20
-430.00000000003001
30
-9.5370964459107199e-07
40
2.7500000000000568
210
-1.6653345369600344e-16
220
-9.3507424026029135e-14
230
1
0
CIRCLE
5
116
100
AcDbEntity
8
0
100
AcDbCircle
10
121.66666666665608
20
429.99999999996987
30
-9.5362928220765752e-07
40
2.7500000000000568
210
-1.6653345369600344e-16
220
-9.3507424026029135e-14
230
1
0
CIRCLE
5
117
100
AcDbEntity
8
0
100
AcDbCircle
10
24.999999999989374
20
409.99999999996987
30
-9.5363521523950112e-07
40
2.7500000000000568
210
-1.6653345369600344e-16
220
-9.3507424026029135e-14
230
1
0
CIRCLE
5
118
100
AcDbEntity
8
0
100
AcDbCircle
10
273.99999999998948
20
-430.00000000003001
30
-9.5370342734213409e-07
40
3.2499999999998863
210
-1.6653345369600344e-16
220
-9.3507424026029198e-14
230
1
0
CIRCLE
5
119
100
AcDbEntity
8
0
100
AcDbCircle
10
273.99999999998931
20
429.99999999996987
30
-9.5362299390444605e-07
40
3.2500000000000284
210
-1.6653345369600344e-16
220
-9.3507424026029198e-14
230
1
0
CIRCLE
5
120
100
AcDbEntity
8
0
100
AcDbCircle
10
253.9999999999894
20
107.49999999996993
30
-9.536539380405884e-07
40
2.7500000000000568
210
-1.6653345369600347e-16
220
-9.3489660457635174e-14
230
1
0
CIRCLE
5
121
100
AcDbEntity
8
0
100
AcDbCircle
10
253.99999999998948
20
-322.50000000003001
30
-9.5369415475943242e-07
40
2.7500000000000568
210
-1.6653345369600347e-16
220
-9.3471896889241162e-14
230
1
0
CIRCLE
5
122
100
AcDbEntity
8
0
100
AcDbCircle
10
253.9999999999894
20
-107.50000000003007
30
-9.5367404640001041e-07
40
2.7500000000000568
210
-1.6653345369600347e-16
220
-9.3489660457635174e-14
230
1
0
CIRCLE
5
123
100
AcDbEntity
8
0
100
AcDbCircle
10
253.99999999998931
20
322.49999999996982
30
-9.5363390073543997e-07
40
2.7500000000000568
210
-1.6653345369600344e-16
220
-9.3507424026029173e-14
230
1
0
CIRCLE
5
124
100
AcDbEntity
8
0
100
AcDbCircle
10
273.99999999998937
20
214.99999999996993
30
-9.5364310226386806e-07
40
2.7500000000000568
210
-1.6653345369600347e-16
220
-9.3471896889241162e-14
230
1
0
CIRCLE
5
125
100
AcDbEntity
8
0
100
AcDbCircle
10
273.99999999998937
20
-215.0000000000299
30
-9.536832479284385e-07
40
2.7500000000000568
210
-1.6653345369600347e-16
220
-9.3471896889241162e-14
230
1
0
CIRCLE
5
126
100
AcDbEntity
8
0
100
AcDbCircle
10
-147.83333333334392
20
-410.00000000003001
30
-9.5367479246988296e-07
40
2.7499999999999858
210
-2.5673365343379823e-15
220
9.6706195791975368e-31
230
1
0
CIRCLE
5
127
100
AcDbEntity
8
0
100
AcDbCircle
10
197.83333333332311
20
409.99999999996976
30
-9.5367386876432647e-07
40
2.7499999999999858
210
-2.5673365343379823e-15
220
9.6706195791975368e-31
230
1
0
CIRCLE
5
128
100
AcDbEntity
8
0
100
AcDbCircle
10
-147.83333333334349
20
410.03280430271354
30
-9.5367479246988296e-07
40
2.7500000000000036
210
-2.5673365343379827e-15
220
9.6706195791975385e-31
230
1
0
CIRCLE
5
129
100
AcDbEntity
8
0
100
AcDbCircle
10
197.83333333332277
20
-410.00000000003001
30
-9.5367386876432647e-07
40
2.7499999999999858
210
-2.5673365343379823e-15
220
9.6706195791975368e-31
230
1
0
CIRCLE
5
130
100
AcDbEntity
8
0
100
AcDbCircle
10
-224.09990357284383
20
-389.00000983476559
30
-9.5367447272565187e-07
40
2.7499999999999858
210
-3.3420222194908753e-16
220
-1.5341408006809804e-32
230
1
0
CIRCLE
5
131
100
AcDbEntity
8
0
100
AcDbCircle
10
-224.09990357284363
20
-12.50000983476564
30
-9.5367454377992544e-07
40
2.7499999999999858
210
-3.3420222194910474e-16
220
-1.5341408006801199e-32
230
1
0
CIRCLE
5
132
100
AcDbEntity
8
0
100
AcDbCircle
10
-224.0999035728434
20
363.99999016523429
30
-9.5367461483419902e-07
40
2.7500000000000213
210
-3.3420222194910617e-16
220
-1.5341408006800487e-32
230
1
0
CIRCLE
5
133
100
AcDbEntity
8
0
100
AcDbCircle
10
-224.0999035728434
20
389.00000000000023
30
-9.5367461483419902e-07
40
2.7499999999999858
210
-3.3420222194909902e-16
220
-1.5341408006804067e-32
230
1
0
CIRCLE
5
134
100
AcDbEntity
8
0
100
AcDbCircle
10
-224.09990357284383
20
-364.00000983476559
30
-9.5367447272565187e-07
40
2.7500000000000213
210
-3.3420222194910617e-16
220
-1.5341408006800487e-32
230
1
0
CIRCLE
5
135
100
AcDbEntity
8
0
100
AcDbCircle
10
-224.09990357284363
20
12.49999016523436
30
-9.5367454377992544e-07
40
2.7499999999999858
210
-3.3420222194909902e-16
220
-1.5341408006804067e-32
230
1
0
ENDSEC
0
SECTION
2
OBJECTS
0
DICTIONARY
5
C
100
AcDbDictionary
3
ACAD_GROUP
350
D
3
ACAD_MLINESTYLE
350
17
0
DICTIONARY
5
D
100
AcDbDictionary
0
DICTIONARY
5
1A
330
C
100
AcDbDictionary
0
DICTIONARY
5
17
100
AcDbDictionary
0
ENDSEC
0
EOF
