0
SECTION
2
HEADER
9
$INSUNITS
70
4
9
$ACADVER
1
AC1014
9
$HANDSEED
5
FFFF
0
ENDSEC
0
SECTION
2
TABLES
0
TABLE
2
VPORT
5
8
100
AcDbSymbolTable
0
ENDTAB
0
TABLE
2
LTYPE
5
5
100
AcDbSymbolTable
0
LTYPE
5
14
100
AcDbSymbolTableRecord
100
AcDbLinetypeTableRecord
2
BYBLOCK
70
0
0
LTYPE
5
15
100
AcDbSymbolTableRecord
100
AcDbLinetypeTableRecord
2
BYLAYER
70
0
0
LTYPE
5
16
100
AcDbSymbolTableRecord
100
AcDbLinetypeTableRecord
2
DASHED
70
0
3
Dashed __ __ __ __ __ __ __ __ __ __ __ __ __ _
72
65
73
2
40
0.75
49
0.5
74
0
49
-0.25
74
0
0
ENDTAB
0
TABLE
2
LAYER
5
2
100
AcDbSymbolTable
70
2
0
LAYER
5
50
100
AcDbSymbolTableRecord
100
AcDbLayerTableRecord
2
0
70
0
62
7
6
CONTINUOUS
0
ENDTAB
0
TABLE
2
STYLE
5
3
100
AcDbSymbolTable
70
1
0
STYLE
5
11
100
AcDbSymbolTableRecord
100
AcDbTextStyleTableRecord
2
STANDARD
70
0
0
ENDTAB
0
TABLE
2
VIEW
5
6
100
AcDbSymbolTable
70
0
0
ENDTAB
0
TABLE
2
UCS
5
7
100
AcDbSymbolTable
70
0
0
ENDTAB
0
TABLE
2
APPID
5
9
100
AcDbSymbolTable
70
2
0
APPID
5
12
100
AcDbSymbolTableRecord
100
AcDbRegAppTableRecord
2
ACAD
70
0
0
ENDTAB
0
TABLE
2
DIMSTYLE
5
A
100
AcDbSymbolTable
70
1
0
ENDTAB
0
TABLE
2
BLOCK_RECORD
5
1
100
AcDbSymbolTable
70
1
0
BLOCK_RECORD
5
1F
100
AcDbSymbolTableRecord
100
AcDbBlockTableRecord
2
*MODEL_SPACE
0
BLOCK_RECORD
5
1B
100
AcDbSymbolTableRecord
100
AcDbBlockTableRecord
2
*PAPER_SPACE
0
ENDTAB
0
ENDSEC
0
SECTION
2
BLOCKS
0
BLOCK
5
20
100
AcDbEntity
100
AcDbBlockBegin
2
*MODEL_SPACE
0
ENDBLK
5
21
100
AcDbEntity
100
AcDbBlockEnd
0
BLOCK
5
1C
100
AcDbEntity
100
AcDbBlockBegin
2
*PAPER_SPACE
0
ENDBLK
5
1D
100
AcDbEntity
100
AcDbBlockEnd
0
ENDSEC
0
SECTION
2
ENTITIES
0
LWPOLYLINE
5
100
100
AcDbEntity
8
0
100
AcDbPolyline
90
8
70
1
43
0.0
10
-325.00000000000136
20
-439.00000000002603
42
0.41421356237309503
10
-324.00000000000148
20
-440.00000000002603
10
273.99999999999852
20
-440.00000000002569
42
0.41421356237311585
10
274.99999999999875
20
-439.00000000002547
10
274.99999999999881
20
438.99999999997408
42
0.41421356237309503
10
273.99999999999875
20
439.99999999997397
10
-324.00000000000125
20
439.99999999997397
42
0.41421356237309503
10
-325.00000000000119
20
438.99999999997408
0
CIRCLE
5
101
100
AcDbEntity
8
0
100
AcDbCircle
10
168.33333333333206
20
409.99999999997397
30
1.0144662887512368e-10
40
2.7500000000000568
210
-2.2204460492581504e-16
220
-5.5091525830823026e-23
230
1
0
CIRCLE
5
102
100
AcDbEntity
8
0
100
AcDbCircle
10
-315.00000000000125
20
429.99999999997397
30
1.0142942041824199e-10
40
3.25
210
-2.2204460492581504e-16
220
-5.5091523182898315e-23
230
1
0
CIRCLE
5
103
100
AcDbEntity
8
0
100
AcDbCircle
10
-315.00000000000131
20
-215.00000000002601
30
1.0142942041824199e-10
40
2.7500000000000568
210
-2.2204460492581504e-16
220
-5.5091525830823026e-23
230
1
0
CIRCLE
5
104
100
AcDbEntity
8
0
100
AcDbCircle
10
71.666666666665435
20
-430.00000000002569
30
1.0145773110536993e-10
40
2.7500000000000568
210
-2.2204460492581504e-16
220
-5.5091525830823026e-23
230
1
0
CIRCLE
5
105
100
AcDbEntity
8
0
100
AcDbCircle
10
264.99999999999881
20
429.99999999997397
30
1.0140055461960173e-10
40
3.25
210
-2.2204460492581504e-16
220
-5.5091523182898315e-23
230
1
0
CIRCLE
5
106
100
AcDbEntity
8
0
100
AcDbCircle
10
-25.000000000001243
20
409.99999999997397
30
1.0143275108731586e-10
40
2.7500000000000568
210
-2.2204460492581504e-16
220
-5.5091525830823026e-23
230
1
0
CIRCLE
5
107
100
AcDbEntity
8
0
100
AcDbCircle
10
264.99999999999875
20
-215.00000000002572
30
1.0140055461960173e-10
40
2.7500000000000568
210
-2.2204460492581504e-16
220
-5.5091525830823026e-23
230
1
0
CIRCLE
5
108
100
AcDbEntity
8
0
100
AcDbCircle
10
-295.00000000000125
20
107.49999999997399
30
1.0142719997219274e-10
40
2.7500000000000568
210
-2.2204460492581504e-16
220
-5.5091525830823026e-23
230
1
0
CIRCLE
5
109
100
AcDbEntity
8
0
100
AcDbCircle
10
244.99999999999872
20
107.49999999997399
30
1.0140277506565099e-10
40
2.7500000000000568
210
-2.2204460492581504e-16
220
-5.5091525830823026e-23
230
1
0
CIRCLE
5
110
100
AcDbEntity
8
0
100
AcDbCircle
10
-218.33333333333462
20
-410.00000000002569
30
1.0138334616272004e-10
40
2.7500000000000568
210
-2.2204460492581504e-16
220
-5.5091525830823026e-23
230
1
0
CIRCLE
5
111
100
AcDbEntity
8
0
100
AcDbCircle
10
71.666666666665506
20
429.99999999997397
30
1.0142220396858193e-10
40
2.7500000000000568
210
-2.2204460492581504e-16
220
-5.5091525830823026e-23
230
1
0
CIRCLE
5
112
100
AcDbEntity
8
0
100
AcDbCircle
10
-315.00000000000125
20
-2.6005864128819667e-11
30
1.0142942041824199e-10
40
2.7500000000000568
210
-2.2204460492581504e-16
220
-5.5091525830823026e-23
230
1
0
CIRCLE
5
113
100
AcDbEntity
8
0
100
AcDbCircle
10
-295.00000000000125
20
322.49999999997397
30
1.0146272710898074e-10
40
2.7500000000000568
210
-2.2204460492581504e-16
220
-5.5091525830823026e-23
230
1
0
CIRCLE
5
114
100
AcDbEntity
8
0
100
AcDbCircle
10
244.99999999999872
20
322.49999999997397
30
1.0140277506565099e-10
40
2.7500000000000568
210
-2.2204460492581504e-16
220
-5.5091525830823026e-23
230
1
0
CIRCLE
5
115
100
AcDbEntity
8
0
100
AcDbCircle
10
-121.66666666666802
20
-430.00000000002569
30
1.014432982060498e-10
40
2.7500000000000568
210
-2.2204460492581504e-16
220
-5.5091525830823026e-23
230
1
0
CIRCLE
5
116
100
AcDbEntity
8
0
100
AcDbCircle
10
244.99999999999872
20
-322.50000000002569
30
1.0140277506565099e-10
40
2.7500000000000568
210
-2.2204460492581504e-16
220
-5.5091525830823026e-23
230
1
0
CIRCLE
5
117
100
AcDbEntity
8
0
100
AcDbCircle
10
-295.00000000000125
20
-322.50000000002569
30
1.0142719997219274e-10
40
2.7500000000000568
210
-2.2204460492581504e-16
220
-5.5091525830823026e-23
230
1
0
CIRCLE
5
118
100
AcDbEntity
8
0
100
AcDbCircle
10
264.99999999999875
20
-2.6005864128819667e-11
30
1.0140055461960173e-10
40
2.7500000000000568
210
-2.2204460492581504e-16
220
-5.5091525830823026e-23
230
1
0
CIRCLE
5
119
100
AcDbEntity
8
0
100
AcDbCircle
10
168.33333333333206
20
-410.00000000002569
30
1.0141110173833567e-10
40
2.7500000000000568
210
-2.2204460492581504e-16
220
-5.5091525830823026e-23
230
1
0
CIRCLE
5
120
100
AcDbEntity
8
0
100
AcDbCircle
10
-315.00000000000125
20
214.99999999997399
30
1.0142942041824199e-10
40
2.7500000000000568
210
-2.2204460492581504e-16
220
-5.5091525830823026e-23
230
1
0
CIRCLE
5
121
100
AcDbEntity
8
0
100
AcDbCircle
10
-121.66666666666792
20
429.99999999997397
30
1.014077710692618e-10
40
2.7500000000000568
210
-2.2204460492581504e-16
220
-5.5091525830823026e-23
230
1
0
CIRCLE
5
122
100
AcDbEntity
8
0
100
AcDbCircle
10
-25.00000000000135
20
-410.00000000002569
30
1.0139722395052786e-10
40
2.7500000000000568
210
-2.2204460492581504e-16
220
-5.5091525830823026e-23
230
1
0
CIRCLE
5
123
100
AcDbEntity
8
0
100
AcDbCircle
10
-218.33333333333456
20
409.99999999997397
30
1.0141887329950805e-10
40
2.7500000000000568
210
-2.2204460492581504e-16
220
-5.5091525830823026e-23
230
1
0
CIRCLE
5
124
100
AcDbEntity
8
0
100
AcDbCircle
10
-295.00000000000125
20
-107.50000000002601
30
1.0142719997219274e-10
40
2.7500000000000568
210
-2.2204460492581504e-16
220
-5.5091525830823026e-23
230
1
0
CIRCLE
5
125
100
AcDbEntity
8
0
100
AcDbCircle
10
244.99999999999872
20
-107.50000000002601
30
1.0140277506565099e-10
40
2.7500000000000568
210
-2.2204460492581504e-16
220
-5.5091525830823026e-23
230
1
0
CIRCLE
5
126
100
AcDbEntity
8
0
100
AcDbCircle
10
264.99999999999881
20
214.99999999997399
30
1.0140055461960173e-10
40
2.7500000000000568
210
-2.2204460492581504e-16
220
-5.5091525830823026e-23
230
1
0
CIRCLE
5
127
100
AcDbEntity
8
0
100
AcDbCircle
10
-315.00000000000136
20
-430.00000000002569
30
1.0146494755502999e-10
40
3.25
210
-2.2204460492581504e-16
220
-5.5091523182898315e-23
230
1
0
CIRCLE
5
128
100
AcDbEntity
8
0
100
AcDbCircle
10
264.99999999999875
20
-430.00000000002569
30
1.0143608175638974e-10
40
3.25
210
-2.2204460492581504e-16
220
-5.5091523182898315e-23
230
1
0
ENDSEC
0
SECTION
2
OBJECTS
0
DICTIONARY
5
C
100
AcDbDictionary
3
ACAD_GROUP
350
D
3
ACAD_MLINESTYLE
350
17
0
DICTIONARY
5
D
100
AcDbDictionary
0
DICTIONARY
5
1A
330
C
100
AcDbDictionary
0
DICTIONARY
5
17
100
AcDbDictionary
0
ENDSEC
0
EOF
