0
SECTION
2
HEADER
9
$INSUNITS
70
4
9
$ACADVER
1
AC1014
9
$HANDSEED
5
FFFF
0
ENDSEC
0
SECTION
2
TABLES
0
TABLE
2
VPORT
5
8
100
AcDbSymbolTable
0
ENDTAB
0
TABLE
2
LTYPE
5
5
100
AcDbSymbolTable
0
LTYPE
5
14
100
AcDbSymbolTableRecord
100
AcDbLinetypeTableRecord
2
BYBLOCK
70
0
0
LTYPE
5
15
100
AcDbSymbolTableRecord
100
AcDbLinetypeTableRecord
2
BYLAYER
70
0
0
LTYPE
5
16
100
AcDbSymbolTableRecord
100
AcDbLinetypeTableRecord
2
DASHED
70
0
3
Dashed __ __ __ __ __ __ __ __ __ __ __ __ __ _
72
65
73
2
40
0.75
49
0.5
74
0
49
-0.25
74
0
0
ENDTAB
0
TABLE
2
LAYER
5
2
100
AcDbSymbolTable
70
2
0
LAYER
5
50
100
AcDbSymbolTableRecord
100
AcDbLayerTableRecord
2
0
70
0
62
7
6
CONTINUOUS
0
ENDTAB
0
TABLE
2
STYLE
5
3
100
AcDbSymbolTable
70
1
0
STYLE
5
11
100
AcDbSymbolTableRecord
100
AcDbTextStyleTableRecord
2
STANDARD
70
0
0
ENDTAB
0
TABLE
2
VIEW
5
6
100
AcDbSymbolTable
70
0
0
ENDTAB
0
TABLE
2
UCS
5
7
100
AcDbSymbolTable
70
0
0
ENDTAB
0
TABLE
2
APPID
5
9
100
AcDbSymbolTable
70
2
0
APPID
5
12
100
AcDbSymbolTableRecord
100
AcDbRegAppTableRecord
2
ACAD
70
0
0
ENDTAB
0
TABLE
2
DIMSTYLE
5
A
100
AcDbSymbolTable
70
1
0
ENDTAB
0
TABLE
2
BLOCK_RECORD
5
1
100
AcDbSymbolTable
70
1
0
BLOCK_RECORD
5
1F
100
AcDbSymbolTableRecord
100
AcDbBlockTableRecord
2
*MODEL_SPACE
0
BLOCK_RECORD
5
1B
100
AcDbSymbolTableRecord
100
AcDbBlockTableRecord
2
*PAPER_SPACE
0
ENDTAB
0
ENDSEC
0
SECTION
2
BLOCKS
0
BLOCK
5
20
100
AcDbEntity
100
AcDbBlockBegin
2
*MODEL_SPACE
0
ENDBLK
5
21
100
AcDbEntity
100
AcDbBlockEnd
0
BLOCK
5
1C
100
AcDbEntity
100
AcDbBlockBegin
2
*PAPER_SPACE
0
ENDBLK
5
1D
100
AcDbEntity
100
AcDbBlockEnd
0
ENDSEC
0
SECTION
2
ENTITIES
0
LWPOLYLINE
5
100
100
AcDbEntity
8
0
100
AcDbPolyline
90
8
70
1
43
0.0
10
-324.99999999995919
20
-439.00000000003035
42
0.41421356237313667
10
-323.99999999995913
20
-440.00000000003024
10
274.00000000004081
20
-439.99999999997397
42
0.4142135623730534
10
275.00000000004059
20
-438.99999999997374
10
274.99999999995862
20
439.00000000002581
42
0.41421356237315748
10
273.99999999995856
20
440.00000000002586
10
-324.00000000004133
20
439.99999999996999
42
0.41421356237311585
10
-325.00000000004127
20
438.99999999996993
0
CIRCLE
5
101
100
AcDbEntity
8
0
100
AcDbCircle
10
168.33333333329463
20
410.0000000000158
30
0
40
2.7500000000000568
210
1.2182813417809966e-62
220
7.7753155202680429e-50
230
1
0
CIRCLE
5
102
100
AcDbEntity
8
0
100
AcDbCircle
10
-315.00000000004042
20
429.9999999999709
30
0
40
3.25
210
1.3300368698656936e-62
220
6.579113132534633e-50
230
1
0
CIRCLE
5
103
100
AcDbEntity
8
0
100
AcDbCircle
10
-314.99999999998016
20
-215.00000000002942
30
0
40
2.7500000000000568
210
1.2182813417809966e-62
220
7.7753155202680429e-50
230
1
0
CIRCLE
5
104
100
AcDbEntity
8
0
100
AcDbCircle
10
71.666666666706647
20
-429.99999999999329
30
0
40
2.7500000000000568
210
1.2182813417809966e-62
220
7.7753155202680429e-50
230
1
0
CIRCLE
5
105
100
AcDbEntity
8
0
100
AcDbCircle
10
264.99999999995953
20
430.00000000002501
30
0
40
3.25
210
1.3300368698656936e-62
220
6.579113132534633e-50
230
1
0
CIRCLE
5
106
100
AcDbEntity
8
0
100
AcDbCircle
10
-25.000000000038654
20
409.99999999999773
30
0
40
2.7500000000000568
210
1.2182813417809966e-62
220
7.7753155202680429e-50
230
1
0
CIRCLE
5
107
100
AcDbEntity
8
0
100
AcDbCircle
10
265.00000000001978
20
-214.99999999997485
30
0
40
2.7500000000000568
210
1.2182813417809966e-62
220
7.7753155202680429e-50
230
1
0
CIRCLE
5
108
100
AcDbEntity
8
0
100
AcDbCircle
10
-295.00000000001029
20
107.49999999997286
30
0
40
2.7500000000000568
210
1.2182813417809966e-62
220
7.7753155202680429e-50
230
1
0
CIRCLE
5
109
100
AcDbEntity
8
0
100
AcDbCircle
10
244.99999999998963
20
107.50000000002331
30
0
40
2.7500000000000568
210
1.2182813417809966e-62
220
7.7753155202680429e-50
230
1
0
CIRCLE
5
110
100
AcDbEntity
8
0
100
AcDbCircle
10
-218.33333333329529
20
-410.00000000002001
30
0
40
2.7500000000000568
210
1.2182813417809966e-62
220
7.7753155202680429e-50
230
1
0
CIRCLE
5
111
100
AcDbEntity
8
0
100
AcDbCircle
10
71.666666666626284
20
430.00000000000693
30
0
40
2.7500000000000568
210
1.2182813417809966e-62
220
7.7753155202680429e-50
230
1
0
CIRCLE
5
112
100
AcDbEntity
8
0
100
AcDbCircle
10
-315.00000000000028
20
-2.8990143619012088e-11
30
0
40
2.7500000000000568
210
1.2182813417809966e-62
220
7.7753155202680429e-50
230
1
0
CIRCLE
5
113
100
AcDbEntity
8
0
100
AcDbCircle
10
-295.00000000003041
20
322.49999999997272
30
0
40
2.7500000000000568
210
1.2182813417809966e-62
220
7.7753155202680429e-50
230
1
0
CIRCLE
5
114
100
AcDbEntity
8
0
100
AcDbCircle
10
244.99999999996945
20
322.50000000002319
30
0
40
2.7500000000000568
210
1.2182813417809966e-62
220
7.7753155202680429e-50
230
1
0
CIRCLE
5
115
100
AcDbEntity
8
0
100
AcDbCircle
10
-121.66666666662681
20
-430.00000000001091
30
0
40
2.7500000000000568
210
1.2182813417809966e-62
220
7.7753155202680429e-50
230
1
0
CIRCLE
5
116
100
AcDbEntity
8
0
100
AcDbCircle
10
245.0000000000297
20
-322.49999999997715
30
0
40
2.7500000000000568
210
1.2182813417809966e-62
220
7.7753155202680429e-50
230
1
0
CIRCLE
5
117
100
AcDbEntity
8
0
100
AcDbCircle
10
-294.99999999997016
20
-322.50000000002717
30
0
40
2.7500000000000568
210
1.2182813417809966e-62
220
7.7753155202680429e-50
230
1
0
CIRCLE
5
118
100
AcDbEntity
8
0
100
AcDbCircle
10
264.99999999999955
20
2.5011104298755527e-11
30
0
40
2.7500000000000568
210
1.2182813417809966e-62
220
7.7753155202680429e-50
230
1
0
CIRCLE
5
119
100
AcDbEntity
8
0
100
AcDbCircle
10
168.33333333337123
20
-409.99999999998397
30
0
40
2.7500000000000568
210
1.2182813417809966e-62
220
7.7753155202680429e-50
230
1
0
CIRCLE
5
120
100
AcDbEntity
8
0
100
AcDbCircle
10
-315.00000000002035
20
214.99999999997087
30
0
40
2.7500000000000568
210
1.2182813417809966e-62
220
7.7753155202680429e-50
230
1
0
CIRCLE
5
121
100
AcDbEntity
8
0
100
AcDbCircle
10
-121.6666666667071
20
429.99999999998892
30
0
40
2.7500000000000568
210
1.2182813417809966e-62
220
7.7753155202680429e-50
230
1
0
CIRCLE
5
122
100
AcDbEntity
8
0
100
AcDbCircle
10
-24.999999999961986
20
-410.00000000000182
30
0
40
2.7500000000000568
210
1.2182813417809966e-62
220
7.7753155202680429e-50
230
1
0
CIRCLE
5
123
100
AcDbEntity
8
0
100
AcDbCircle
10
-218.33333333337194
20
409.99999999997965
30
0
40
2.7500000000000568
210
1.2182813417809966e-62
220
7.7753155202680429e-50
230
1
0
CIRCLE
5
124
100
AcDbEntity
8
0
100
AcDbCircle
10
-294.99999999999022
20
-107.50000000002714
30
0
40
2.7500000000000568
210
1.2182813417809966e-62
220
7.7753155202680429e-50
230
1
0
CIRCLE
5
125
100
AcDbEntity
8
0
100
AcDbCircle
10
245.00000000000972
20
-107.49999999997669
30
0
40
2.7500000000000568
210
1.2182813417809966e-62
220
7.7753155202680429e-50
230
1
0
CIRCLE
5
126
100
AcDbEntity
8
0
100
AcDbCircle
10
264.99999999997942
20
215.00000000002487
30
0
40
2.7500000000000568
210
1.2182813417809966e-62
220
7.7753155202680429e-50
230
1
0
CIRCLE
5
127
100
AcDbEntity
8
0
100
AcDbCircle
10
-314.9999999999601
20
-430.00000000002944
30
0
40
3.25
210
1.3300368698656936e-62
220
6.579113132534633e-50
230
1
0
CIRCLE
5
128
100
AcDbEntity
8
0
100
AcDbCircle
10
265.00000000003985
20
-429.99999999997488
30
0
40
3.25
210
1.3300368698656936e-62
220
6.579113132534633e-50
230
1
0
CIRCLE
5
129
100
AcDbEntity
8
0
100
AcDbCircle
10
39.999998805965902
20
429.99999058622365
30
1.8321344441574183e-10
40
3.2500000000000018
210
1.7763568394002501e-15
220
3.1389085600875902e-43
230
1
0
CIRCLE
5
130
100
AcDbEntity
8
0
100
AcDbCircle
10
-89.999507205639731
20
429.99998417885166
30
1.8342660723646986e-10
40
3.2500000000000107
210
1.7763568394002501e-15
220
3.5873240686715317e-43
230
1
0
ENDSEC
0
SECTION
2
OBJECTS
0
DICTIONARY
5
C
100
AcDbDictionary
3
ACAD_GROUP
350
D
3
ACAD_MLINESTYLE
350
17
0
DICTIONARY
5
D
100
AcDbDictionary
0
DICTIONARY
5
1A
330
C
100
AcDbDictionary
0
DICTIONARY
5
17
100
AcDbDictionary
0
ENDSEC
0
EOF
