0
SECTION
2
HEADER
9
$INSUNITS
70
4
9
$ACADVER
1
AC1014
9
$HANDSEED
5
FFFF
0
ENDSEC
0
SECTION
2
TABLES
0
TABLE
2
VPORT
5
8
100
AcDbSymbolTable
0
ENDTAB
0
TABLE
2
LTYPE
5
5
100
AcDbSymbolTable
0
LTYPE
5
14
100
AcDbSymbolTableRecord
100
AcDbLinetypeTableRecord
2
BYBLOCK
70
0
0
LTYPE
5
15
100
AcDbSymbolTableRecord
100
AcDbLinetypeTableRecord
2
BYLAYER
70
0
0
LTYPE
5
16
100
AcDbSymbolTableRecord
100
AcDbLinetypeTableRecord
2
DASHED
70
0
3
Dashed __ __ __ __ __ __ __ __ __ __ __ __ __ _
72
65
73
2
40
0.75
49
0.5
74
0
49
-0.25
74
0
0
ENDTAB
0
TABLE
2
LAYER
5
2
100
AcDbSymbolTable
70
2
0
LAYER
5
50
100
AcDbSymbolTableRecord
100
AcDbLayerTableRecord
2
0
70
0
62
7
6
CONTINUOUS
0
ENDTAB
0
TABLE
2
STYLE
5
3
100
AcDbSymbolTable
70
1
0
STYLE
5
11
100
AcDbSymbolTableRecord
100
AcDbTextStyleTableRecord
2
STANDARD
70
0
0
ENDTAB
0
TABLE
2
VIEW
5
6
100
AcDbSymbolTable
70
0
0
ENDTAB
0
TABLE
2
UCS
5
7
100
AcDbSymbolTable
70
0
0
ENDTAB
0
TABLE
2
APPID
5
9
100
AcDbSymbolTable
70
2
0
APPID
5
12
100
AcDbSymbolTableRecord
100
AcDbRegAppTableRecord
2
ACAD
70
0
0
ENDTAB
0
TABLE
2
DIMSTYLE
5
A
100
AcDbSymbolTable
70
1
0
ENDTAB
0
TABLE
2
BLOCK_RECORD
5
1
100
AcDbSymbolTable
70
1
0
BLOCK_RECORD
5
1F
100
AcDbSymbolTableRecord
100
AcDbBlockTableRecord
2
*MODEL_SPACE
0
BLOCK_RECORD
5
1B
100
AcDbSymbolTableRecord
100
AcDbBlockTableRecord
2
*PAPER_SPACE
0
ENDTAB
0
ENDSEC
0
SECTION
2
BLOCKS
0
BLOCK
5
20
100
AcDbEntity
100
AcDbBlockBegin
2
*MODEL_SPACE
0
ENDBLK
5
21
100
AcDbEntity
100
AcDbBlockEnd
0
BLOCK
5
1C
100
AcDbEntity
100
AcDbBlockBegin
2
*PAPER_SPACE
0
ENDBLK
5
1D
100
AcDbEntity
100
AcDbBlockEnd
0
ENDSEC
0
SECTION
2
ENTITIES
0
LWPOLYLINE
5
100
100
AcDbEntity
8
0
100
AcDbPolyline
90
8
70
1
43
0.0
10
275.00000000000011
20
-274
10
275.00000000000011
20
324
42
0.41421356237309503
10
274.00000000000011
20
325
10
-323.99999999999983
20
325
42
0.41421356237309503
10
-324.99999999999989
20
324
10
-324.99999999999977
20
-274
42
0.41421356237309503
10
-323.99999999999977
20
-275
10
274.00000000000017
20
-275
42
0.4142135623730846
0
CIRCLE
5
101
100
AcDbEntity
8
0
100
AcDbCircle
10
265.00000000000011
20
315
30
3.5527136788005009e-13
40
3.2499999999999929
210
-1.5265217036127787e-30
220
1.0509738482436128e-45
230
1
0
CIRCLE
5
102
100
AcDbEntity
8
0
100
AcDbCircle
10
265.00000000000011
20
-265
30
3.5527136788005009e-13
40
3.2499999999999929
210
-1.5265217036127787e-30
220
1.0509738482436128e-45
230
1
0
CIRCLE
5
103
100
AcDbEntity
8
0
100
AcDbCircle
10
-314.99999999999983
20
315
30
3.5527136788005009e-13
40
3.2499999999999929
210
-1.5265217036127787e-30
220
1.0509738482436128e-45
230
1
0
CIRCLE
5
104
100
AcDbEntity
8
0
100
AcDbCircle
10
-314.99999999999983
20
-265
30
3.5527136788005009e-13
40
3.2499999999999929
210
-1.5265217036127787e-30
220
1.0509738482436128e-45
230
1
0
CIRCLE
5
105
100
AcDbEntity
8
0
100
AcDbCircle
10
265.00000000000011
20
295
30
3.5527136788005009e-13
40
3.2500000000000284
210
-9.1970562267352731e-31
220
1.0509738482436128e-45
230
1
0
CIRCLE
5
106
100
AcDbEntity
8
0
100
AcDbCircle
10
-314.99999999999983
20
-245
30
3.5527136788005009e-13
40
3.2499999999999929
210
-1.5265217036127787e-30
220
1.0509738482436128e-45
230
1
0
CIRCLE
5
107
100
AcDbEntity
8
0
100
AcDbCircle
10
245.00000000000014
20
-265
30
3.5527136788005009e-13
40
3.2499999999999929
210
-1.5265217036127787e-30
220
1.0509738482436128e-45
230
1
0
CIRCLE
5
108
100
AcDbEntity
8
0
100
AcDbCircle
10
-314.99999999999983
20
295
30
3.5527136788005009e-13
40
3.2499999999999929
210
-1.5265217036127787e-30
220
1.0509738482436128e-45
230
1
0
CIRCLE
5
109
100
AcDbEntity
8
0
100
AcDbCircle
10
245.00000000000014
20
315
30
3.5527136788005009e-13
40
3.2499999999999929
210
-1.5265217036127787e-30
220
1.0509738482436128e-45
230
1
0
CIRCLE
5
110
100
AcDbEntity
8
0
100
AcDbCircle
10
-294.99999999999983
20
-265
30
3.5527136788005009e-13
40
3.2500000000000284
210
-9.1970562267352731e-31
220
1.0509738482436128e-45
230
1
0
CIRCLE
5
111
100
AcDbEntity
8
0
100
AcDbCircle
10
265.00000000000011
20
-245
30
3.5527136788005009e-13
40
3.2499999999999929
210
-1.5265217036127787e-30
220
1.0509738482436128e-45
230
1
0
CIRCLE
5
112
100
AcDbEntity
8
0
100
AcDbCircle
10
-294.99999999999983
20
315
30
3.5527136788005009e-13
40
3.2500000000000284
210
-9.1970562267352731e-31
220
1.0509738482436128e-45
230
1
0
CIRCLE
5
113
100
AcDbEntity
8
0
100
AcDbCircle
10
-24.999999999999968
20
24.999999999999982
30
0
40
20
210
5.9211894646675015e-17
220
1.0509738482436128e-45
230
1
0
CIRCLE
5
114
100
AcDbEntity
8
0
100
AcDbCircle
10
-294.99999999999983
20
-225
30
3.5527136788005009e-13
40
2.7499999999999858
210
5.55111512312642e-17
220
-7.0064923216240854e-46
230
1
0
CIRCLE
5
115
100
AcDbEntity
8
0
100
AcDbCircle
10
-294.99999999999983
20
-45.000000000000014
30
3.5527136788005009e-13
40
2.7500000000000213
210
5.5511151231264187e-17
220
-7.0064923216240854e-46
230
1
0
CIRCLE
5
116
100
AcDbEntity
8
0
100
AcDbCircle
10
-294.99999999999983
20
-20.000000670552271
30
3.5527136788005009e-13
40
2.7500000000000213
210
5.5511151231264187e-17
220
-7.0064923216240854e-46
230
1
0
CIRCLE
5
117
100
AcDbEntity
8
0
100
AcDbCircle
10
-294.99999999999983
20
275
30
3.5527136788005009e-13
40
2.7499999999999858
210
5.55111512312642e-17
220
-7.0064923216240854e-46
230
1
0
CIRCLE
5
118
100
AcDbEntity
8
0
100
AcDbCircle
10
-294.99999999999983
20
94.999999999999986
30
3.5527136788005009e-13
40
2.7500000000000213
210
5.5511151231264187e-17
220
-7.0064923216240854e-46
230
1
0
CIRCLE
5
119
100
AcDbEntity
8
0
100
AcDbCircle
10
-294.99999999999983
20
69.999999999999986
30
3.5527136788005009e-13
40
2.7499999999999858
210
5.55111512312642e-17
220
-7.0064923216240854e-46
230
1
0
CIRCLE
5
120
100
AcDbEntity
8
0
100
AcDbCircle
10
245.00000000000014
20
275
30
3.5527136788005009e-13
40
2.7500000000000213
210
5.5511151231264187e-17
220
-7.0064923216240854e-46
230
1
0
CIRCLE
5
121
100
AcDbEntity
8
0
100
AcDbCircle
10
245.00000000000014
20
94.999999999999986
30
3.5527136788005009e-13
40
2.7499999999999858
210
5.55111512312642e-17
220
-7.0064923216240854e-46
230
1
0
CIRCLE
5
122
100
AcDbEntity
8
0
100
AcDbCircle
10
245.00000000000014
20
69.999999999999986
30
3.5527136788005009e-13
40
2.7499999999999858
210
5.55111512312642e-17
220
-7.0064923216240854e-46
230
1
0
CIRCLE
5
123
100
AcDbEntity
8
0
100
AcDbCircle
10
245.00000000000014
20
-20.000000000000018
30
3.5527136788005009e-13
40
2.7499999999999858
210
5.55111512312642e-17
220
-7.0064923216240854e-46
230
1
0
CIRCLE
5
124
100
AcDbEntity
8
0
100
AcDbCircle
10
245.00000000000014
20
-45.000000000000014
30
3.5527136788005009e-13
40
2.7500000000000213
210
5.5511151231264187e-17
220
-7.0064923216240854e-46
230
1
0
CIRCLE
5
125
100
AcDbEntity
8
0
100
AcDbCircle
10
245.00000000000014
20
-225
30
3.5527136788005009e-13
40
2.7499999999999858
210
5.55111512312642e-17
220
-7.0064923216240854e-46
230
1
0
CIRCLE
5
126
100
AcDbEntity
8
0
100
AcDbCircle
10
-274.99999999999983
20
295
30
3.5527136788005009e-13
40
2.7499999999999858
210
5.55111512312642e-17
220
-7.0064923216240854e-46
230
1
0
CIRCLE
5
127
100
AcDbEntity
8
0
100
AcDbCircle
10
-104.99999999999997
20
295
30
3.5527136788005009e-13
40
2.7499999999999858
210
5.55111512312642e-17
220
-7.0064923216240854e-46
230
1
0
CIRCLE
5
128
100
AcDbEntity
8
0
100
AcDbCircle
10
225.00000000000014
20
295
30
3.5527136788005009e-13
40
2.7499999999999858
210
5.55111512312642e-17
220
-7.0064923216240854e-46
230
1
0
CIRCLE
5
129
100
AcDbEntity
8
0
100
AcDbCircle
10
55.000000000000014
20
295
30
3.5527136788005009e-13
40
2.7500000000000036
210
5.55111512312642e-17
220
-7.0064923216240854e-46
230
1
0
CIRCLE
5
130
100
AcDbEntity
8
0
100
AcDbCircle
10
-274.99999999999994
20
-245
30
3.5527136788005009e-13
40
2.7499999999999858
210
5.55111512312642e-17
220
-7.0064923216240854e-46
230
1
0
CIRCLE
5
131
100
AcDbEntity
8
0
100
AcDbCircle
10
-94.999999999999972
20
-245
30
3.5527136788005009e-13
40
2.7499999999999947
210
5.5511151231264187e-17
220
-7.0064923216240854e-46
230
1
0
CIRCLE
5
132
100
AcDbEntity
8
0
100
AcDbCircle
10
-69.999999999999972
20
-245
30
3.5527136788005009e-13
40
2.7500000000000036
210
5.55111512312642e-17
220
-7.0064923216240854e-46
230
1
0
CIRCLE
5
133
100
AcDbEntity
8
0
100
AcDbCircle
10
20.000000000000032
20
-245
30
3.5527136788005009e-13
40
2.7499999999999858
210
5.55111512312642e-17
220
-7.0064923216240854e-46
230
1
0
CIRCLE
5
134
100
AcDbEntity
8
0
100
AcDbCircle
10
45.000000000000036
20
-245
30
3.5527136788005009e-13
40
2.7499999999999947
210
5.5511151231264187e-17
220
-7.0064923216240854e-46
230
1
0
CIRCLE
5
135
100
AcDbEntity
8
0
100
AcDbCircle
10
225.00000000000014
20
-245
30
3.5527136788005009e-13
40
2.7499999999999858
210
5.55111512312642e-17
220
-7.0064923216240854e-46
230
1
0
ENDSEC
0
SECTION
2
OBJECTS
0
DICTIONARY
5
C
100
AcDbDictionary
3
ACAD_GROUP
350
D
3
ACAD_MLINESTYLE
350
17
0
DICTIONARY
5
D
100
AcDbDictionary
0
DICTIONARY
5
1A
330
C
100
AcDbDictionary
0
DICTIONARY
5
17
100
AcDbDictionary
0
ENDSEC
0
EOF
